<svg xmlns="http://www.w3.org/2000/svg" xmlns:xlink="http://www.w3.org/1999/xlink" version="1.1" width="25.953125" height="33.414064" viewBox="0 0 25.953125 33.414064">
<path transform="matrix(-.002391,.999997,.999997,.002391,-7.462795,-.017391205)" d="M0 33.416017H29.35302C31.562159 33.416017 33.35302 31.625155 33.35302 29.416016V7.542488H0V33.416017Z" fill-opacity=".25"/>
<path transform="matrix(-.002391,.999997,.999997,.002391,-7.462795,-.017391205)" d="M0 33.416017H29.35302C31.562159 33.416017 33.35302 31.625155 33.35302 29.416016V7.542488H0V33.416017Z" fill="#424141"/>
<path transform="matrix(1,0,0,-1,20.132813,18.392579)" d="M.940136 .400174 .94046 .600175 .93993 .600174 .940136 .400174ZM.845163 .439534 .986782 .580757 .986584 .580955 .845163 .439534ZM.039333 1.245364 .180754 1.386785 .039333 1.245364ZM.229246 1.435277 .37067 1.576695 .370667 1.576698 .229246 1.435277ZM1.035076 .629413 .893652 .487995 .893689 .487957 1.035076 .629413ZM1.035076 .439534 .893689 .58099 .893339 .580639 1.035076 .439534ZM.93993 .600174C.94863 .600183 .957249 .598473 .965293 .59514L.812152 .225616C.852793 .208773 .896358 .200129 .940343 .200174L.93993 .600174ZM.965293 .59514C.973336 .591806 .980638 .586918 .986782 .580757L.703544 .29831C.734603 .267164 .771512 .242458 .812152 .225616L.965293 .59514ZM.986584 .580955 .180754 1.386785-.102089 1.103942 .703741 .298112 .986584 .580955ZM.180754 1.386785C.186854 1.380685 .191695 1.373442 .194998 1.365467L-.174554 1.212394C-.157753 1.171834-.133128 1.134982-.102089 1.103942L.180754 1.386785ZM.194998 1.365467C.1983 1.357495 .2 1.34895 .2 1.34032H-.2C-.2 1.296421-.191353 1.252951-.174554 1.212394L.194998 1.365467ZM.2 1.34032C.2 1.331691 .1983 1.323146 .194998 1.315174L-.174554 1.468247C-.191353 1.42769-.2 1.38422-.2 1.34032H.2ZM.194998 1.315174C.191695 1.307199 .186854 1.299956 .180754 1.293856L-.102089 1.576698C-.133128 1.545659-.157753 1.508807-.174554 1.468247L.194998 1.315174ZM.180754 1.293856C.174652 1.287753 .167408 1.282913 .159436 1.279611L.006363 1.649163C-.034194 1.632364-.071046 1.607741-.102089 1.576698L.180754 1.293856ZM.159436 1.279611C.151463 1.276309 .142919 1.274609 .13429 1.274609V1.674609C.090391 1.674609 .046921 1.665963 .006363 1.649163L.159436 1.279611ZM.13429 1.274609C.12566 1.274609 .117114 1.276309 .109143 1.279611L.262216 1.649163C.221659 1.665962 .17819 1.674609 .13429 1.674609V1.274609ZM.109143 1.279611C.101171 1.282913 .093927 1.287753 .087825 1.293856L.370667 1.576698C.339625 1.607741 .302773 1.632364 .262216 1.649163L.109143 1.279611ZM.087822 1.293859 .893652 .487995 1.1765 .770832 .37067 1.576695 .087822 1.293859ZM.893689 .487957C.887578 .494066 .882731 .501318 .879424 .509297L1.248957 .662416C1.232151 .702976 1.207518 .73983 1.176463 .770869L.893689 .487957ZM.879424 .509297C.876118 .517278 .874415 .525833 .874415 .534473H1.274415C1.274415 .57838 1.265764 .621855 1.248957 .662416L.879424 .509297ZM.874415 .534473C.874415 .543114 .876118 .551669 .879424 .559649L1.248957 .406531C1.265764 .447091 1.274415 .490567 1.274415 .534473H.874415ZM.879424 .559649C.882731 .567629 .887578 .574881 .893689 .58099L1.176463 .298078C1.207518 .329117 1.232151 .365971 1.248957 .406531L.879424 .559649ZM.893339 .580639C.899514 .586842 .906857 .591762 .914947 .595116L1.068134 .225611C1.108812 .242475 1.145748 .267224 1.176813 .298428L.893339 .580639ZM.914947 .595116C.923038 .59847 .931709 .600188 .94046 .600174L.939813 .200174C.983842 .200103 1.027454 .208746 1.068134 .225611L.914947 .595116Z" fill="#fffdfd"/>
<path transform="matrix(1,0,0,-1,20.132813,18.392579)" d="M.940136 .400174C.922494 .400156 .905021 .403623 .888722 .410378 .872424 .417132 .857621 .427041 .845163 .439534L.039333 1.245364C.026863 1.257834 .016971 1.272638 .010222 1.28893 .003473 1.305223 0 1.322685 0 1.34032 -0 1.357955 .003473 1.375418 .010222 1.39171 .016971 1.408003 .026863 1.422807 .039333 1.435277 .051803 1.447747 .066607 1.457639 .082899 1.464387 .099192 1.471136 .116655 1.474609 .13429 1.474609 .151925 1.474609 .169387 1.471136 .185679 1.464387 .201972 1.457639 .216776 1.447747 .229246 1.435277L1.035076 .629413C1.047548 .616948 1.057441 .602147 1.064191 .585857 1.070941 .569567 1.074415 .552107 1.074415 .534473 1.074415 .51684 1.070941 .49938 1.064191 .48309 1.057441 .4668 1.047548 .451999 1.035076 .439534 1.022631 .427033 1.007835 .417119 .99154 .410364 .975246 .403608 .957776 .400146 .940136 .400174Z" fill="#ffffff"/>
<path transform="matrix(1,0,0,-1,4.015625,25.644532)" d="M14.8486 13.370344 15.011189 13.486814 15.010971 13.487118 14.8486 13.370344ZM14.817905 13.182782 14.933661 13.019677 14.934884 13.020559 14.817905 13.182782ZM14.630342 13.213477 14.792856 13.33005 14.792719 13.33024 14.630342 13.213477ZM8.192636 16.516524 8.192634 16.316525H8.192636V16.516524ZM16.116637 8.592556H16.316637V8.592706L16.116637 8.592556ZM16.250937 8.726855 16.250786 8.526855H16.251036L16.250937 8.726855ZM16.385235 8.592556 16.185236 8.592656V8.592556H16.385235ZM8.192636 .599955C3.785741 .599955 .2 4.185697 .2 8.592556H-.2C-.2 3.964782 3.564828 .199955 8.192636 .199955V.599955ZM.2 8.592556C.2 12.999414 3.785741 16.585156 8.192636 16.585156V16.985157C3.564828 16.985157-.2 13.22033-.2 8.592556H.2ZM8.192636 16.585156C10.758131 16.585156 13.186033 15.339556 14.686231 13.253571L15.010971 13.487118C13.435748 15.677423 10.887082 16.985157 8.192636 16.985157V16.585156ZM14.686013 13.253874C14.675932 13.267947 14.671843 13.285441 14.674638 13.302521L15.069386 13.237919C15.083689 13.325315 15.062763 13.414818 15.011188 13.486814L14.686013 13.253874ZM14.674638 13.302521C14.677433 13.319601 14.686886 13.334879 14.700927 13.345004L14.934884 13.020559C15.006719 13.072359 15.055084 13.150523 15.069386 13.237919L14.674638 13.302521ZM14.702154 13.345882C14.729871 13.365553 14.770982 13.360544 14.792856 13.33005L14.467828 13.096905C14.576281 12.945711 14.784704 12.913971 14.933657 13.019682L14.702154 13.345882ZM14.792719 13.33024C13.267868 15.45077 10.800771 16.716525 8.192636 16.716525V16.316525C10.671824 16.316525 13.018147 15.112901 14.467965 13.096714L14.792719 13.33024ZM8.192636 16.716525C3.712761 16.716559 .068632 13.072394 .068632 8.592556H.468632C.468632 12.851482 3.933676 16.316557 8.192634 16.316525L8.192636 16.716525ZM.068632 8.592556C.068632 4.112751 3.712795 .468555 8.192636 .468555V.868555C3.93371 .868555 .468632 4.333664 .468632 8.592556H.068632ZM8.192636 .468555C12.672441 .468555 16.316637 4.11275 16.316637 8.592556H15.916637C15.916637 4.333664 12.451528 .868555 8.192636 .868555V.468555ZM16.316637 8.592706C16.316643 8.584061 16.314946 8.575494 16.311638 8.567498L15.942028 8.720433C15.925231 8.679837 15.916604 8.636332 15.916637 8.592405L16.316637 8.592706ZM16.311638 8.567498C16.30833 8.559506 16.30348 8.552244 16.297364 8.546128L16.01452 8.828971C15.983458 8.797907 15.958823 8.761024 15.942028 8.720433L16.311638 8.567498ZM16.297364 8.546128C16.291249 8.540012 16.283987 8.535162 16.275994 8.531855L16.123059 8.901464C16.082467 8.884668 16.045584 8.860033 16.01452 8.828971L16.297364 8.546128ZM16.275994 8.531855C16.267998 8.528546 16.259432 8.526849 16.250786 8.526855L16.251088 8.926855C16.20716 8.926888 16.163655 8.918262 16.123059 8.901464L16.275994 8.531855ZM16.251036 8.526855C16.242396 8.526851 16.233838 8.528549 16.225852 8.531856L16.378832 8.901445C16.33825 8.918243 16.294754 8.926877 16.250836 8.926855L16.251036 8.526855ZM16.225852 8.531856C16.217865 8.535161 16.21061 8.540008 16.204499 8.546119L16.48734 8.82896C16.456286 8.860017 16.419413 8.884647 16.378832 8.901445L16.225852 8.531856ZM16.204499 8.546119C16.198388 8.552231 16.19354 8.559486 16.190236 8.56747L16.559826 8.72045C16.54303 8.76103 16.518399 8.797903 16.48734 8.82896L16.204499 8.546119ZM16.190236 8.56747C16.18693 8.575457 16.18523 8.584015 16.185236 8.592656L16.585236 8.592456C16.585257 8.636374 16.576624 8.679869 16.559826 8.72045L16.190236 8.56747ZM16.185236 8.592556C16.185236 4.185697 12.599495 .599955 8.192636 .599955V.199955C12.820409 .199955 16.585236 3.964783 16.585236 8.592556H16.185236Z" fill="#fffdfd"/>
<path transform="matrix(1,0,0,-1,4.015625,25.644532)" d="M8.192636 .399956C3.675285 .399956 0 4.075239 0 8.592556 0 13.109873 3.675285 16.785157 8.192636 16.785157 10.822607 16.785157 13.310891 15.508489 14.8486 13.370344 14.869348 13.341383 14.877766 13.305378 14.872012 13.27022 14.866259 13.235062 14.846802 13.203619 14.817905 13.182782 14.757288 13.139762 14.673631 13.153128 14.630342 13.213477 13.143007 15.281836 10.736298 16.516524 8.192636 16.516524 3.823219 16.516558 .268632 12.961938 .268632 8.592556 .268632 4.223207 3.823252 .668554 8.192636 .668554 12.561984 .668554 16.116637 4.223207 16.116637 8.592556 16.116623 8.610196 16.120089 8.627666 16.126833 8.643966 16.133578 8.660266 16.143469 8.675076 16.155943 8.68755 16.168416 8.700023 16.183226 8.709915 16.199526 8.71666 16.215826 8.723404 16.233296 8.726869 16.250937 8.726855 16.268576 8.726864 16.286044 8.723396 16.302342 8.71665 16.31864 8.709905 16.333447 8.700012 16.34592 8.68754 16.358393 8.675067 16.368285 8.660258 16.37503 8.64396 16.381777 8.627663 16.385245 8.610195 16.385235 8.592556 16.385235 4.075239 12.709952 .399956 8.192636 .399956Z" fill="#ffffff"/>
<path transform="matrix(1,0,0,-1,8.582031,21.214844)" d="M10.878757 3.220505 10.879081 3.420506 10.878537 3.420505 10.878757 3.220505ZM10.783784 3.449744 10.92507 3.308188 10.925208 3.308326 10.783784 3.449744ZM11.589614 4.255608 11.448193 4.397029 11.44819 4.397027 11.589614 4.255608ZM11.779527 4.065695 11.920948 3.924273 11.779527 4.065695ZM10.973697 3.259865 10.832275 3.401286 10.831961 3.40097 10.973697 3.259865ZM7.655437 .400083 7.655537 .600083H7.655437V.400083ZM0 6.443825H.2V6.443925L0 6.443825ZM.134333 6.578125 .134183 6.378125H.134333V6.578125ZM7.789735 .534382H7.589736V.534282L7.789735 .534382ZM.268632 .668681H.068632V.468681H.268632V.668681ZM7.521103 .668681V.468681H7.721103V.668681H7.521103ZM7.521103 6.309526H7.721103V6.509526H7.521103V6.309526ZM.268632 6.309526V6.509526H.068632V6.309526H.268632ZM10.878537 3.420505C10.891552 3.42052 10.904283 3.416672 10.915115 3.409442L10.693083 3.076724C10.74812 3.039996 10.812819 3.020433 10.878977 3.020506L10.878537 3.420505ZM10.915115 3.409442C10.925945 3.402215 10.934386 3.391937 10.939369 3.37991L10.569828 3.22681C10.595152 3.165685 10.638047 3.113451 10.693083 3.076724L10.915115 3.409442ZM10.939369 3.37991C10.944353 3.36788 10.945653 3.354644 10.943108 3.341878L10.550828 3.420088C10.537892 3.355203 10.544503 3.287937 10.569828 3.22681L10.939369 3.37991ZM10.943108 3.341878C10.940562 3.329109 10.934284 3.317384 10.92507 3.308188L10.642497 3.5913C10.595669 3.544561 10.563765 3.484975 10.550828 3.420088L10.943108 3.341878ZM10.925208 3.308326 11.731038 4.11419 11.44819 4.397027 10.64236 3.591163 10.925208 3.308326ZM11.731035 4.114187C11.724934 4.108085 11.71769 4.103245 11.709717 4.099942L11.556643 4.469494C11.516086 4.452694 11.479234 4.428071 11.448193 4.397029L11.731035 4.114187ZM11.709717 4.099942C11.701744 4.09664 11.693199 4.09494 11.68457 4.09494V4.49494C11.640672 4.49494 11.597202 4.486294 11.556643 4.469494L11.709717 4.099942ZM11.68457 4.09494C11.675941 4.09494 11.667397 4.09664 11.659424 4.099942L11.812497 4.469494C11.771939 4.486294 11.728469 4.49494 11.68457 4.49494V4.09494ZM11.659424 4.099942C11.651451 4.103245 11.644207 4.108085 11.638105 4.114187L11.920948 4.397029C11.889907 4.428071 11.853056 4.452694 11.812497 4.469494L11.659424 4.099942ZM11.638105 4.114187C11.632009 4.120284 11.627167 4.127527 11.623862 4.135505L11.993414 4.288578C11.976612 4.329142 11.951986 4.365992 11.920948 4.397029L11.638105 4.114187ZM11.623862 4.135505C11.62056 4.143479 11.61886 4.152024 11.61886 4.160651H12.01886C12.01886 4.204549 12.010215 4.248019 11.993414 4.288578L11.623862 4.135505ZM11.61886 4.160651C11.61886 4.169279 11.62056 4.177824 11.623862 4.185798L11.993414 4.032724C12.010215 4.073284 12.01886 4.116754 12.01886 4.160651H11.61886ZM11.623862 4.185798C11.627167 4.193776 11.632009 4.201018 11.638105 4.207116L11.920948 3.924273C11.951986 3.955311 11.976612 3.992161 11.993414 4.032724L11.623862 4.185798ZM11.638105 4.207116 10.832275 3.401286 11.115118 3.118443 11.920948 3.924273 11.638105 4.207116ZM10.831961 3.40097C10.838134 3.407171 10.845477 3.412093 10.853568 3.415447L11.006755 3.045942C11.047435 3.062807 11.08437 3.087557 11.115434 3.118759L10.831961 3.40097ZM10.853568 3.415447C10.861661 3.418802 10.870333 3.420519 10.879081 3.420505L10.878434 3.020506C10.922462 3.020434 10.966073 3.029077 11.006755 3.045942L10.853568 3.415447ZM7.655437 .600083H.134333V.200083H7.655437V.600083ZM.134333 .600083C.170505 .600083 .2 .570652 .2 .534382H-.2C-.2 .349674-.050344 .200083 .134333 .200083V.600083ZM.2 .534382V6.443825H-.2V.534382H.2ZM.2 6.443925C.200004 6.435281 .198305 6.426722 .194999 6.418736L-.174582 6.57174C-.191384 6.531154-.200022 6.487653-.2 6.443725L.2 6.443925ZM.194999 6.418736C.191693 6.410751 .186845 6.403494 .180731 6.397382L-.102076 6.68026C-.133142 6.649202-.15778 6.612325-.174582 6.57174L.194999 6.418736ZM.180731 6.397382C.174618 6.39127 .16736 6.386424 .159374 6.38312L.006462 6.752739C-.034128 6.735947-.07101 6.711318-.102076 6.68026L.180731 6.397382ZM.159374 6.38312C.151388 6.379816 .142828 6.378119 .134183 6.378125L.134483 6.778125C.090555 6.778158 .047052 6.769531 .006462 6.752739L.159374 6.38312ZM.134333 6.378125H7.655402V6.778125H.134333V6.378125ZM7.655402 6.378125C7.61923 6.378125 7.589736 6.407555 7.589736 6.443825H7.989735C7.989735 6.628533 7.84008 6.778125 7.655402 6.778125V6.378125ZM7.589736 6.443825V.534382H7.989735V6.443825H7.589736ZM7.589736 .534282C7.589731 .542922 7.591429 .55148 7.594736 .559467L7.964325 .406487C7.981123 .44707 7.989757 .490564 7.989735 .534482L7.589736 .534282ZM7.594736 .559467C7.598041 .567452 7.602887 .574708 7.608999 .58082L7.891841 .297977C7.922898 .329033 7.947528 .365906 7.964325 .406487L7.594736 .559467ZM7.608999 .58082C7.61511 .586931 7.622366 .591778 7.630351 .595083L7.783331 .225492C7.823912 .24229 7.860785 .26692 7.891841 .297977L7.608999 .58082ZM7.630351 .595083C7.638337 .598388 7.646895 .600087 7.655537 .600083L7.655336 .200083C7.699255 .200061 7.74275 .208695 7.783331 .225492L7.630351 .595083ZM.268632 .468681H7.521103V.868681H.268632V.468681ZM7.721103 .668681V6.309526H7.321104V.668681H7.721103ZM7.521103 6.509526H.268632V6.109526H7.521103V6.509526ZM.068632 6.309526V.668681H.468632V6.309526H.068632Z" fill="#fffdfd"/>
<path transform="matrix(1,0,0,-1,8.582031,21.214844)" d="M10.878757 3.220505C10.852185 3.220476 10.826201 3.228333 10.804099 3.243083 10.781997 3.257833 10.764769 3.278811 10.754599 3.30336 10.744428 3.327908 10.741773 3.354924 10.746968 3.380983 10.752164 3.407042 10.764977 3.430973 10.783784 3.449744L11.589614 4.255608C11.602084 4.268078 11.616887 4.277969 11.633181 4.284719 11.649473 4.291467 11.666935 4.29494 11.68457 4.29494 11.702206 4.29494 11.719668 4.291467 11.735961 4.284719 11.752254 4.277969 11.767057 4.268078 11.779527 4.255608 11.791997 4.243138 11.801889 4.228334 11.808639 4.212041 11.815387 4.195749 11.81886 4.178287 11.81886 4.160651 11.81886 4.143016 11.815387 4.125554 11.808639 4.109262 11.801889 4.092969 11.791997 4.078165 11.779527 4.065695L10.973697 3.259865C10.961252 3.247364 10.946456 3.23745 10.930161 3.230695 10.913867 3.223939 10.896397 3.220477 10.878757 3.220505ZM7.655437 .400083H.134333C.06008 .400083 0 .460164 0 .534382V6.443825C-.000009 6.461467 .00346 6.478938 .010208 6.495238 .016956 6.511538 .026852 6.526348 .039328 6.538821 .051804 6.551294 .066616 6.561185 .082918 6.567929 .09922 6.574674 .116691 6.578138 .134333 6.578125H7.655402C7.729655 6.578125 7.789735 6.518044 7.789735 6.443825V.534382C7.789744 .516744 7.786276 .499275 7.779531 .482977 7.772784 .466679 7.762893 .451871 7.75042 .439398 7.737947 .426926 7.723139 .417034 7.706841 .410288 7.690543 .403542 7.673075 .400074 7.655437 .400083ZM.268632 .668681H7.521103V6.309526H.268632V.668681Z" fill="#ffffff"/>
<path transform="matrix(1,0,0,-1,8.582031,15.300781)" d="M7.655354 .39916V.19916H7.655387L7.655354 .39916ZM.134251 .39916 .134218 .19916H.134251V.39916ZM.010161 .482043-.174746 .405821-.174576 .405413 .010161 .482043ZM.039278 .628399-.102142 .769823-.102376 .769588 .039278 .628399ZM1.11374 1.702828 1.255159 1.561404 1.255242 1.561487 1.11374 1.702828ZM1.208714 1.742188 1.208673 1.542187H1.208714V1.742188ZM6.675866 1.702828 6.534444 1.561407 6.534446 1.561404 6.675866 1.702828ZM7.750328 .628399 7.892004 .769565 7.891747 .769823 7.750328 .628399ZM7.779444 .482043 7.964182 .405412 7.964363 .405852 7.779444 .482043ZM.458497 .667759 .317073 .809177-.024331 .467759H.458497V.667759ZM7.331141 .667759V.467759H7.813984L7.472563 .80918 7.331141 .667759ZM6.525311 1.473589 6.666733 1.61501 6.608154 1.673589H6.525311V1.473589ZM1.264294 1.473589V1.673589H1.181449L1.12287 1.615007 1.264294 1.473589ZM7.655354 .59916H.134251V.19916H7.655354V.59916ZM.134284 .59916C.147257 .599158 .159939 .595311 .170728 .588105L-.051443 .255479C.003518 .218768 .068126 .199171 .134218 .19916L.134284 .59916ZM.170728 .588105C.181516 .580899 .189927 .570658 .194898 .558674L-.174576 .405413C-.149252 .344363-.106403 .292188-.051443 .255479L.170728 .588105ZM.195067 .558265C.19998 .546346 .201259 .533242 .198744 .5206L-.193568 .598648C-.206444 .533924-.199897 .466836-.174745 .405822L.195067 .558265ZM.198744 .5206C.196229 .507958 .190032 .496341 .180931 .48721L-.102376 .769588C-.148964 .722846-.180691 .663373-.193568 .598648L.198744 .5206ZM.180697 .486976 1.255159 1.561404 .972321 1.844252-.102142 .769823 .180697 .486976ZM1.255242 1.561487C1.249128 1.555367 1.241869 1.550512 1.233879 1.547201L1.080738 1.916725C1.040155 1.899906 1.003286 1.875251 .972239 1.844169L1.255242 1.561487ZM1.233879 1.547201C1.225888 1.543889 1.217324 1.542186 1.208673 1.542187L1.208754 1.942188C1.164823 1.942196 1.121321 1.933544 1.080738 1.916725L1.233879 1.547201ZM1.208714 1.542187H6.580925V1.942188H1.208714V1.542187ZM6.580925 1.542187C6.563383 1.542187 6.546648 1.549203 6.534444 1.561407L6.817287 1.844249C6.754708 1.906828 6.669797 1.942188 6.580925 1.942188V1.542187ZM6.534446 1.561404 7.608908 .486976 7.891747 .769823 6.817285 1.844252 6.534446 1.561404ZM7.608651 .487234C7.59956 .496357 7.593369 .507965 7.590855 .520599L7.983167 .598647C7.970293 .663361 7.938575 .722825 7.892004 .769565L7.608651 .487234ZM7.590855 .520599C7.588342 .533232 7.589619 .546326 7.594526 .558234L7.964363 .405852C7.989499 .466857 7.996041 .533932 7.983167 .598647L7.590855 .520599ZM7.594707 .558674C7.599678 .570656 7.608088 .580898 7.618878 .588105L7.841049 .255479C7.896011 .29219 7.938858 .344365 7.964181 .405413L7.594707 .558674ZM7.618878 .588105C7.629667 .595311 7.642349 .599158 7.655321 .59916L7.655387 .19916C7.721479 .199171 7.786087 .218768 7.841049 .255479L7.618878 .588105ZM.458497 .467759H7.331141V.867759H.458497V.467759ZM7.472563 .80918 6.666733 1.61501 6.38389 1.332167 7.18972 .526337 7.472563 .80918ZM6.525311 1.673589H1.264294V1.273589H6.525311V1.673589ZM1.12287 1.615007 .317073 .809177 .599922 .52634 1.405718 1.33217 1.12287 1.615007Z" fill="#fffdfd"/>
<path transform="matrix(1,0,0,-1,8.582031,15.300781)" d="M7.655354 .39916H.134251C.107691 .399164 .081729 .40704 .059642 .421792 .037556 .436544 .020337 .457511 .010161 .482043 .000042 .506591-.002593 .533583 .002588 .559624 .007769 .585665 .020534 .609594 .039278 .628399L1.11374 1.702828C1.126207 1.715309 1.141012 1.725209 1.157308 1.731963 1.173605 1.738716 1.191073 1.742191 1.208714 1.742188H6.580925C6.61659 1.742188 6.650678 1.728015 6.675866 1.702828L7.750328 .628399C7.769068 .609591 7.78183 .585663 7.787011 .559623 7.792192 .533582 7.789559 .506592 7.779444 .482043 7.769268 .457511 7.752049 .436544 7.729963 .421792 7.707877 .40704 7.681914 .399164 7.655354 .39916ZM.458497 .667759H7.331141L6.525311 1.473589H1.264294L.458497 .667759Z" fill="#ffffff"/>
<path transform="matrix(1,0,0,-1,11.539062,15.349609)" d="M.134246 .447941 .133916 .24794 .134519 .247941 .134246 .447941ZM.014085 .64232-.164801 .731763-.164966 .731431 .014085 .64232ZM.551316 1.716783 .373011 1.807385 .372431 1.806226 .551316 1.716783ZM.731524 1.776863 .821106 1.95568 .820677 1.955894 .731524 1.776863ZM.791605 1.596656 .970489 1.507211 .97057 1.507372 .791605 1.596656ZM.254373 .522227 .433183 .432634 .433257 .432782 .254373 .522227ZM1.745906 .447941 1.745653 .247941H1.745673L1.745906 .447941ZM1.625779 .52216 1.446895 .432715 1.447033 .432439 1.625779 .52216ZM1.088548 1.596589 .909582 1.507305 .909663 1.507144 1.088548 1.596589ZM1.148628 1.776796 1.23821 1.597981 1.238225 1.597988 1.148628 1.776796ZM1.328836 1.716716 1.149863 1.627447 1.149948 1.627277 1.328836 1.716716ZM1.866034 .642253 2.044999 .731536 2.044921 .731691 1.866034 .642253ZM1.805953 .462045 1.895209 .283066 1.895535 .28323 1.805953 .462045ZM.134575 .64794C.145725 .647922 .156688 .645059 .166424 .639621L-.028632 .290402C.021057 .262649 .077004 .248035 .133916 .247941L.134575 .64794ZM.166424 .639621C.176161 .634182 .184347 .62635 .19021 .616866L-.150029 .406539C-.120104 .35813-.078321 .318156-.028632 .290402L.166424 .639621ZM.19021 .616866C.196072 .607383 .199419 .596558 .199931 .585417L-.199647 .567047C-.197033 .510193-.179954 .454947-.150029 .406539L.19021 .616866ZM.199931 .585417C.200443 .574278 .198104 .563192 .193136 .553209L-.164966 .731431C-.190324 .68048-.202261 .623901-.199647 .567047L.199931 .585417ZM.19297 .552877 .730202 1.62734 .372431 1.806226-.164801 .731763 .19297 .552877ZM.729618 1.626182C.714037 1.595518 .675474 1.581349 .642371 1.597833L.820677 1.955894C.654853 2.03847 .455763 1.970232 .373015 1.807383L.729618 1.626182ZM.641942 1.598048C.626411 1.605829 .614603 1.619454 .609109 1.635932L.988575 1.762444C.960553 1.846495 .900323 1.915994 .821106 1.955679L.641942 1.598048ZM.609109 1.635932C.603616 1.652409 .604885 1.670395 .61264 1.685939L.97057 1.507372C1.010123 1.586655 1.016598 1.678393 .988575 1.762444L.609109 1.635932ZM.61272 1.686101 .075489 .611672 .433257 .432782 .970489 1.507211 .61272 1.686101ZM.075563 .61182C.080994 .62266 .089332 .63178 .099648 .638159L.31003 .297954C.36277 .330568 .405407 .377198 .433183 .432634L.075563 .61182ZM.099648 .638159C.109963 .644538 .121847 .647924 .133973 .64794L.134519 .247941C.196525 .248025 .25729 .26534 .31003 .297954L.099648 .638159ZM1.74616 .64794C1.758273 .647925 1.770145 .644546 1.780451 .638178L1.570207 .297888C1.622935 .26531 1.683675 .248019 1.745653 .247941L1.74616 .64794ZM1.780451 .638178C1.790758 .63181 1.799092 .622705 1.804526 .61188L1.447033 .432439C1.474836 .377048 1.517479 .330465 1.570207 .297888L1.780451 .638178ZM1.804664 .611605 1.267432 1.686034 .909663 1.507144 1.446895 .432715 1.804664 .611605ZM1.267513 1.685872C1.275267 1.670328 1.276537 1.652342 1.271043 1.635864L.891577 1.762377C.863554 1.678325 .870029 1.586588 .909583 1.507305L1.267513 1.685872ZM1.271043 1.635864C1.26555 1.619387 1.253742 1.605761 1.23821 1.597981L1.059046 1.955612C.979829 1.915926 .919599 1.846428 .891577 1.762377L1.271043 1.635864ZM1.238225 1.597988C1.230491 1.594113 1.222067 1.5918 1.213437 1.591183L1.184921 1.990165C1.141093 1.987033 1.098314 1.975288 1.059032 1.955605L1.238225 1.597988ZM1.213437 1.591183C1.204809 1.590566 1.196143 1.591657 1.187935 1.594394L1.314447 1.97386C1.272763 1.987757 1.228748 1.993298 1.184921 1.990165L1.213437 1.591183ZM1.187935 1.594394C1.179729 1.597129 1.172142 1.601457 1.165608 1.607129L1.427844 1.909176C1.394664 1.937983 1.356129 1.959963 1.314447 1.97386L1.187935 1.594394ZM1.165608 1.607129C1.159073 1.612803 1.153724 1.619708 1.149864 1.627447L1.507808 1.805985C1.488197 1.845302 1.461026 1.880368 1.427844 1.909176L1.165608 1.607129ZM1.149948 1.627277 1.687146 .552815 2.044921 .731691 1.507723 1.806154 1.149948 1.627277ZM1.687068 .55297C1.679314 .568514 1.678045 .5865 1.683538 .602977L2.063004 .476465C2.091027 .560516 2.084552 .652254 2.044999 .731536L1.687068 .55297ZM1.683538 .602977C1.689032 .619455 1.70084 .63308 1.716371 .640861L1.895535 .28323C1.974752 .322915 2.034982 .392413 2.063004 .476465L1.683538 .602977ZM1.716697 .641024C1.725842 .645584 1.735922 .647952 1.74614 .64794L1.745673 .247941C1.797569 .24788 1.848767 .259906 1.895209 .283067L1.716697 .641024Z" fill="#fffdfd"/>
<path transform="matrix(1,0,0,-1,11.539062,15.349609)" d="M.134246 .447941C.111365 .447978 .088872 .453854 .068896 .465011 .04892 .476169 .032121 .49224 .02009 .511702 .008059 .531165 .001193 .553376 .000142 .576232-.000909 .599089 .00389 .621836 .014085 .64232L.551316 1.716783C.5849 1.782875 .665164 1.809909 .731524 1.776863 .763367 1.760911 .787578 1.732975 .798842 1.699188 .810107 1.665401 .807504 1.628525 .791605 1.596656L.254373 .522227C.243201 .499929 .226051 .481174 .204839 .468056 .183627 .454939 .159186 .447975 .134246 .447941ZM1.745906 .447941C1.720974 .447972 1.69654 .454928 1.675329 .468033 1.654118 .481138 1.636964 .499877 1.625779 .52216L1.088548 1.596589C1.072649 1.628458 1.070046 1.665334 1.08131 1.699121 1.092574 1.732908 1.116785 1.760844 1.148628 1.776796 1.164402 1.7847 1.18158 1.789416 1.199179 1.790674 1.216778 1.791932 1.234453 1.789707 1.251191 1.784127 1.267929 1.778546 1.283403 1.76972 1.296726 1.758153 1.31005 1.746585 1.320961 1.732505 1.328836 1.716716L1.866034 .642253C1.881933 .610384 1.884536 .573508 1.873271 .539721 1.862007 .505934 1.837796 .477998 1.805953 .462045 1.787304 .452745 1.766746 .447916 1.745906 .447941Z" fill="#ffffff"/>
<path transform="matrix(1,0,0,-1,11.539062,16.378907)" d="M.134299 .399092V.599092H.134199L.134299 .399092ZM0 .533425 .2 .533275V.533425H0ZM.134199 .599092C.142844 .599097 .151404 .597397 .159389 .594091L.006385 .22451C.04697 .207708 .090471 .19907 .134399 .199092L.134199 .599092ZM.159389 .594091C.167374 .590785 .174631 .585938 .180743 .579824L-.102135 .297017C-.071077 .26595-.0342 .241313 .006385 .22451L.159389 .594091ZM.180743 .579824C.186854 .573711 .1917 .566454 .195004 .558467L-.174614 .405555C-.157822 .364964-.133193 .328082-.102135 .297017L.180743 .579824ZM.195004 .558467C.198309 .550478 .200006 .541917 .2 .533275L-.2 .533576C-.200033 .48965-.191408 .446148-.174614 .405555L.195004 .558467ZM.2 .533425V1.607888H-.2V.533425H.2ZM.2 1.607888C.2 1.57165 .170537 1.542187 .134299 1.542187V1.942188C-.050377 1.942188-.2 1.792564-.2 1.607888H.2ZM.134299 1.542187C.098062 1.542187 .068599 1.571649 .068599 1.607888H.468599C.468599 1.792565 .318974 1.942188 .134299 1.942188V1.542187ZM.068599 1.607888V.533425H.468599V1.607888H.068599ZM.068599 .533425C.068599 .569598 .098029 .599092 .134299 .599092V.199092C.319007 .199092 .468599 .348748 .468599 .533425H.068599Z" fill="#fffdfd"/>
<path transform="matrix(1,0,0,-1,11.539062,16.378907)" d="M.134299 .399092C.116657 .399084 .099187 .402553 .082887 .409301 .066587 .416049 .051777 .425944 .039304 .43842 .026831 .450896 .016939 .465709 .010195 .482011 .003451 .498313-.000013 .515784 0 .533425V1.607888C0 1.682107 .06008 1.742188 .134299 1.742188 .208518 1.742188 .268599 1.682107 .268599 1.607888V.533425C.268599 .459173 .208518 .399092 .134299 .399092Z" fill="#ffffff"/>
<path transform="matrix(1,0,0,-1,11.539062,16.375)" d="M1.74596 .599336H.134299V.199336H1.74596V.599336ZM.134299 .599336C.17057 .599336 .2 .56984 .2 .533669H-.2C-.2 .348993-.05041 .199336 .134299 .199336V.599336ZM.2 .533669C.2 .497433 .170506 .467969 .134299 .467969V.867969C-.050345 .867969-.2 .71841-.2 .533669H.2ZM.134299 .467969H1.74596V.867969H.134299V.467969ZM1.74596 .467969C1.709721 .467969 1.680259 .497432 1.680259 .533669H2.080259C2.080259 .718344 1.930637 .867969 1.74596 .867969V.467969ZM1.680259 .533669C1.680259 .569841 1.709656 .599336 1.74596 .599336V.199336C1.930701 .199336 2.080259 .349059 2.080259 .533669H1.680259Z" fill="#fffdfd"/>
<path transform="matrix(1,0,0,-1,11.539062,16.375)" d="M1.74596 .399336H.134299C.06008 .399336 0 .459416 0 .533669 0 .607922 .06008 .667969 .134299 .667969H1.74596C1.820179 .667969 1.880259 .607888 1.880259 .533669 1.880259 .45945 1.820179 .399336 1.74596 .399336Z" fill="#ffffff"/>
<path transform="matrix(1,0,0,-1,11.539062,16.513672)" d="M1.74596 .533858V.733858H1.74586L1.74596 .533858ZM1.61166 .668191 1.811661 .668041V.668191H1.61166ZM1.61166 1.742654H1.811661V1.742754L1.61166 1.742654ZM1.74596 1.876953 1.74586 1.676953H1.74606L1.74596 1.876953ZM1.880259 1.742654 1.680259 1.742754V1.742654H1.880259ZM.134299 .399559 .134399 .599559H.134199L.134299 .399559ZM0 .533858 .2 .533758V.533858H0ZM.268599 .533858H.068599V.533758L.268599 .533858ZM.671531 .399559 .671631 .599559H.671531V.399559ZM.537198 .668191H.737198V.668291L.537198 .668191ZM.671531 .802491 .671381 .602491H.671631L.671531 .802491ZM.80583 .668191 .60583 .668291V.668191H.80583ZM.80583 .533858H.60583V.533758L.80583 .533858ZM1.208728 .399559 1.208878 .599559H1.208628L1.208728 .399559ZM1.074429 .533858 1.274429 .533758V.533858H1.074429ZM1.074429 .668191H1.274429V.668291L1.074429 .668191ZM1.208728 .802491 1.208628 .602491H1.208728V.802491ZM1.343061 .533858H1.143061V.533758L1.343061 .533858ZM1.74586 .733858C1.754505 .733863 1.763065 .732163 1.77105 .728857L1.618046 .359276C1.658631 .342474 1.702131 .333836 1.74606 .333858L1.74586 .733858ZM1.77105 .728857C1.779033 .725552 1.786289 .720705 1.792403 .71459L1.509525 .431782C1.540584 .400715 1.577462 .376078 1.618046 .359276L1.77105 .728857ZM1.792403 .71459C1.798519 .708472 1.803364 .701214 1.806665 .693233L1.437047 .540321C1.453837 .499736 1.478463 .462852 1.509525 .431782L1.792403 .71459ZM1.806665 .693233C1.809969 .685247 1.811667 .676687 1.811661 .668041L1.411661 .668342C1.411628 .624412 1.420255 .58091 1.437047 .540321L1.806665 .693233ZM1.811661 .668191V1.742654H1.411661V.668191H1.811661ZM1.811661 1.742754C1.811665 1.734113 1.809966 1.725554 1.80666 1.717568L1.43707 1.870549C1.420272 1.829966 1.411639 1.786473 1.411661 1.742554L1.811661 1.742754ZM1.80666 1.717568C1.803356 1.709584 1.798509 1.702329 1.792397 1.696216L1.509555 1.979059C1.478497 1.948002 1.453867 1.911128 1.43707 1.870549L1.80666 1.717568ZM1.792397 1.696216C1.786287 1.690106 1.779031 1.685259 1.771045 1.681953L1.618064 2.051543C1.577483 2.034746 1.540611 2.010115 1.509555 1.979059L1.792397 1.696216ZM1.771045 1.681953C1.763058 1.678647 1.7545 1.676949 1.74586 1.676953L1.74606 2.076953C1.702142 2.076975 1.658648 2.068342 1.618064 2.051543L1.771045 1.681953ZM1.74606 1.676953C1.73742 1.676949 1.728861 1.678647 1.720874 1.681953L1.873855 2.051543C1.833272 2.068342 1.789778 2.076975 1.74586 2.076953L1.74606 1.676953ZM1.720874 1.681953C1.712888 1.685259 1.705633 1.690106 1.699522 1.696216L1.982365 1.979059C1.951309 2.010115 1.914437 2.034746 1.873855 2.051543L1.720874 1.681953ZM1.699522 1.696216C1.69341 1.702329 1.688564 1.709584 1.685259 1.717568L2.054849 1.870549C2.038053 1.911128 2.013422 1.948002 1.982365 1.979059L1.699522 1.696216ZM1.685259 1.717568C1.681953 1.725554 1.680255 1.734113 1.680259 1.742754L2.080259 1.742554C2.080281 1.786473 2.071647 1.829966 2.054849 1.870549L1.685259 1.717568ZM1.680259 1.742654V.668191H2.080259V1.742654H1.680259ZM1.680259 .668191C1.680259 .704363 1.709689 .733858 1.74596 .733858V.333858C1.930669 .333858 2.080259 .483515 2.080259 .668191H1.680259ZM.134199 .599559C.14284 .599563 .151399 .597865 .159385 .594559L.006404 .224969C.046987 .208171 .090481 .199537 .134399 .199559L.134199 .599559ZM.159385 .594559C.167369 .591254 .174625 .586408 .180737 .580296L-.102106 .297453C-.071048 .266396-.034175 .241765 .006404 .224969L.159385 .594559ZM.180737 .580296C.186849 .574184 .191695 .566928 .195 .558944L-.17459 .405964C-.157794 .365384-.133163 .328511-.102106 .297453L.180737 .580296ZM.195 .558944C.198306 .550958 .200004 .542399 .2 .533758L-.2 .533958C-.200022 .49004-.191388 .446546-.17459 .405964L.195 .558944ZM.2 .533858V.668191H-.2V.533858H.2ZM.2 .668191C.2 .631954 .170538 .602491 .134299 .602491V1.002491C-.050378 1.002491-.2 .852866-.2 .668191H.2ZM.134299 .602491C.098061 .602491 .068599 .631953 .068599 .668191H.468599C.468599 .852867 .318975 1.002491 .134299 1.002491V.602491ZM.068599 .668191V.533858H.468599V.668191H.068599ZM.068599 .533758C.068595 .542403 .070294 .550961 .073599 .558944L.443189 .405964C.459985 .446542 .468621 .490036 .468599 .533958L.068599 .533758ZM.073599 .558944C.076903 .566928 .081749 .574184 .087862 .580296L.370704 .297453C.401762 .328511 .426392 .365384 .443189 .405964L.073599 .558944ZM.087862 .580296C.093972 .586407 .101228 .591254 .109214 .594559L.262195 .224969C.302776 .241766 .339648 .266397 .370704 .297453L.087862 .580296ZM.109214 .594559C.117201 .597865 .125759 .599563 .134399 .599559L.134199 .199559C.178117 .199537 .221611 .208171 .262195 .224969L.109214 .594559ZM.671531 .599559C.707702 .599559 .737198 .570129 .737198 .533858H.337198C.337198 .349149 .486854 .199559 .671531 .199559V.599559ZM.737198 .533858V.668191H.337198V.533858H.737198ZM.737198 .668291C.737202 .659651 .735503 .651091 .732196 .643102L.362615 .796106C.345811 .755516 .337176 .712015 .337198 .668091L.737198 .668291ZM.732196 .643102C.728889 .635115 .724041 .627858 .717929 .621748L.435121 .904626C.404057 .873569 .379418 .836693 .362615 .796106L.732196 .643102ZM.717929 .621748C.711816 .615637 .704559 .61079 .696571 .607486L.54366 .977105C.503069 .960312 .466186 .935683 .435121 .904626L.717929 .621748ZM.696571 .607486C.688585 .604182 .680026 .602485 .671381 .602491L.671681 1.002491C.627753 1.002524 .58425 .993897 .54366 .977105L.696571 .607486ZM.671631 .602491C.662986 .602487 .654428 .604186 .646445 .607491L.799426 .977081C.758847 .993877 .715353 1.002513 .671431 1.002491L.671631 .602491ZM.646445 .607491C.638459 .610796 .631203 .615643 .625093 .621754L.907935 .904597C.87688 .935652 .840007 .960283 .799426 .977081L.646445 .607491ZM.625093 .621754C.618984 .627862 .614137 .635117 .61083 .643106L.98042 .796087C.963622 .836671 .938989 .873543 .907935 .904597L.625093 .621754ZM.61083 .643106C.607524 .651093 .605826 .659651 .60583 .668291L1.00583 .668091C1.005852 .712009 .997219 .755504 .98042 .796087L.61083 .643106ZM.60583 .668191V.533858H1.00583V.668191H.60583ZM.60583 .533758C.605826 .542399 .607524 .550958 .61083 .558944L.98042 .405964C.997218 .446546 1.005852 .49004 1.00583 .533958L.60583 .533758ZM.61083 .558944C.614136 .566931 .618983 .574186 .625093 .580296L.907935 .297453C.938991 .328508 .963622 .365381 .98042 .405964L.61083 .558944ZM.625093 .580296C.631203 .586407 .638459 .591254 .646445 .594559L.799426 .224969C.840007 .241766 .87688 .266397 .907935 .297453L.625093 .580296ZM.646445 .594559C.654431 .597865 .66299 .599563 .671631 .599559L.671431 .199559C.715349 .199537 .758843 .208171 .799426 .224969L.646445 .594559ZM1.208628 .599559C1.217268 .599563 1.225826 .597865 1.233814 .594559L1.080833 .224969C1.121416 .208171 1.16491 .199537 1.208828 .199559L1.208628 .599559ZM1.233814 .594559C1.241799 .591254 1.249055 .586407 1.255166 .580296L.972323 .297453C1.003379 .266397 1.040251 .241766 1.080833 .224969L1.233814 .594559ZM1.255166 .580296C1.261278 .574184 1.266124 .566928 1.269429 .558944L.899839 .405964C.916635 .365384 .941265 .328511 .972323 .297453L1.255166 .580296ZM1.269429 .558944C1.272735 .550958 1.274433 .542399 1.274429 .533758L.874429 .533958C.874407 .49004 .883041 .446546 .899839 .405964L1.269429 .558944ZM1.274429 .533858V.668191H.874429V.533858H1.274429ZM1.274429 .668291C1.274433 .659651 1.272735 .651093 1.269429 .643106L.899839 .796087C.88304 .755504 .874407 .712009 .874429 .668091L1.274429 .668291ZM1.269429 .643106C1.266123 .63512 1.261276 .627864 1.255166 .621754L.972323 .904597C.941267 .873541 .916636 .836668 .899839 .796087L1.269429 .643106ZM1.255166 .621754C1.249055 .615643 1.241799 .610796 1.233814 .607491L1.080833 .977081C1.040251 .960283 1.003379 .935652 .972323 .904597L1.255166 .621754ZM1.233814 .607491C1.22583 .604186 1.217272 .602487 1.208628 .602491L1.208828 1.002491C1.164906 1.002513 1.121412 .993878 1.080833 .977081L1.233814 .607491ZM1.208728 .602491C1.172556 .602491 1.143061 .631921 1.143061 .668191H1.543061C1.543061 .852899 1.393406 1.002491 1.208728 1.002491V.602491ZM1.143061 .668191V.533858H1.543061V.668191H1.143061ZM1.143061 .533758C1.143057 .5424 1.144756 .55096 1.148063 .558948L1.517644 .405944C1.534447 .446533 1.543083 .490034 1.543061 .533958L1.143061 .533758ZM1.148063 .558948C1.15137 .566936 1.156218 .574192 1.16233 .580302L1.445137 .297424C1.476201 .32848 1.50084 .365356 1.517644 .405944L1.148063 .558948ZM1.16233 .580302C1.168441 .586411 1.175698 .591258 1.183687 .594564L1.336599 .224945C1.377192 .241738 1.414074 .266368 1.445137 .297424L1.16233 .580302ZM1.183687 .594564C1.191677 .597869 1.200237 .599566 1.208878 .599559L1.208578 .199559C1.252502 .199526 1.296006 .208151 1.336599 .224945L1.183687 .594564Z" fill="#fffdfd"/>
<path transform="matrix(1,0,0,-1,11.539062,16.513672)" d="M1.74596 .533858C1.728318 .533849 1.710848 .537318 1.694548 .544067 1.678248 .550815 1.663437 .56071 1.650964 .573186 1.638491 .585662 1.6286 .600475 1.621856 .616777 1.615112 .633079 1.611647 .65055 1.61166 .668191V1.742654C1.611652 1.760293 1.615119 1.77776 1.621865 1.794058 1.628611 1.810356 1.638503 1.825165 1.650976 1.837638 1.663449 1.85011 1.678257 1.860002 1.694555 1.866748 1.710853 1.873494 1.728321 1.876962 1.74596 1.876953 1.763599 1.876962 1.781067 1.873494 1.797365 1.866748 1.813663 1.860002 1.828471 1.85011 1.840943 1.837638 1.853416 1.825165 1.863308 1.810356 1.870054 1.794058 1.8768 1.77776 1.880268 1.760293 1.880259 1.742654V.668191C1.880259 .593939 1.820179 .533858 1.74596 .533858ZM.134299 .399559C.11666 .39955 .099193 .403018 .082895 .409764 .066597 .41651 .051788 .426402 .039315 .438875 .026843 .451347 .016951 .466156 .010205 .482454 .003459 .498752-.000009 .516219 0 .533858V.668191C0 .74241 .06008 .802491 .134299 .802491 .208518 .802491 .268599 .74241 .268599 .668191V.533858C.268608 .516219 .26514 .498752 .258394 .482454 .251648 .466156 .241756 .451347 .229283 .438875 .21681 .426402 .202002 .41651 .185704 .409764 .169406 .403018 .151938 .39955 .134299 .399559ZM.671531 .399559C.597278 .399559 .537198 .459639 .537198 .533858V.668191C.537189 .685833 .540657 .703304 .547406 .719604 .554154 .735904 .564049 .750714 .576525 .763187 .589001 .77566 .603814 .785551 .620116 .792296 .636418 .79904 .653889 .802504 .671531 .802491 .68917 .8025 .706637 .799032 .722935 .792286 .739233 .78554 .754041 .775648 .766514 .763175 .778987 .750703 .788879 .735894 .795625 .719596 .802371 .703298 .805839 .68583 .80583 .668191V.533858C.805839 .516219 .802371 .498752 .795625 .482454 .788879 .466156 .778987 .451347 .766514 .438875 .754041 .426402 .739233 .41651 .722935 .409764 .706637 .403018 .68917 .39955 .671531 .399559ZM1.208728 .399559C1.191089 .39955 1.173621 .403018 1.157323 .409764 1.141025 .41651 1.126217 .426402 1.113744 .438875 1.101272 .451347 1.09138 .466156 1.084634 .482454 1.077888 .498752 1.07442 .516219 1.074429 .533858V.668191C1.07442 .68583 1.077888 .703298 1.084634 .719596 1.09138 .735894 1.101272 .750703 1.113744 .763175 1.126217 .775648 1.141025 .78554 1.157323 .792286 1.173621 .799032 1.191089 .8025 1.208728 .802491 1.282981 .802491 1.343061 .74241 1.343061 .668191V.533858C1.34307 .516217 1.339602 .498746 1.332853 .482446 1.326105 .466146 1.31621 .451336 1.303733 .438863 1.291257 .42639 1.276445 .416498 1.260143 .409754 1.243841 .40301 1.22637 .399546 1.208728 .399559Z" fill="#ffffff"/>
<path transform="matrix(1,0,0,-1,9.121094,20.273438)" d="M4.163484 4.163475C4.145844 4.163465 4.128376 4.166933 4.112079 4.173679 4.095781 4.180425 4.080973 4.190317 4.0685 4.20279 4.056027 4.215262 4.046135 4.230071 4.039389 4.246369 4.032643 4.262667 4.029176 4.280135 4.029184 4.297773V4.432106C4.029176 4.449746 4.032643 4.467214 4.039389 4.483511 4.046135 4.499809 4.056027 4.514618 4.0685 4.527091 4.080973 4.539563 4.095781 4.549455 4.112079 4.556201 4.128376 4.562947 4.145844 4.566415 4.163484 4.566406 4.181123 4.566415 4.198591 4.562947 4.214889 4.556201 4.231186 4.549455 4.245995 4.539563 4.258467 4.527091 4.27094 4.514618 4.280832 4.499809 4.287578 4.483511 4.294324 4.467214 4.297791 4.449746 4.297783 4.432106V4.297773C4.297791 4.280135 4.294324 4.262667 4.287578 4.246369 4.280832 4.230071 4.27094 4.215262 4.258467 4.20279 4.245995 4.190317 4.231186 4.180425 4.214889 4.173679 4.198591 4.166933 4.181123 4.163465 4.163484 4.163475ZM6.580973 .000024H6.043743C6.026101 .000015 6.00863 .003485 5.99233 .010233 5.976029 .016981 5.96122 .026875 5.948747 .039352 5.936274 .051828 5.926382 .066641 5.919638 .082943 5.912894 .099245 5.90943 .116715 5.909442 .134357V.671555C5.909442 .745807 5.969524 .805888 6.043743 .805888H6.580973C6.598615 .805897 6.616086 .802428 6.632386 .79568 6.648686 .788932 6.663496 .779036 6.67597 .76656 6.688443 .754084 6.698334 .739272 6.705078 .72297 6.711822 .706668 6.715287 .689197 6.715273 .671555V.134357C6.715273 .060104 6.655192 .000024 6.580973 .000024ZM6.178042 .268657H6.44664V.537256H6.178042V.268657ZM5.506511 .000024H4.969314C4.951672 .000015 4.934202 .003485 4.917902 .010233 4.901601 .016981 4.886792 .026875 4.874319 .039352 4.861845 .051828 4.851954 .066641 4.84521 .082943 4.838466 .099245 4.835001 .116715 4.835014 .134357V.671555C4.835014 .745807 4.895061 .805888 4.969314 .805888H5.506511C5.580764 .805888 5.640844 .745807 5.640844 .671555V.134357C5.640844 .060104 5.580764 .000024 5.506511 .000024ZM5.103613 .268657H5.372212V.537256H5.103613V.268657ZM2.820422 .537256H.1343C.116661 .537247 .099193 .540714 .082895 .547461 .066597 .554206 .051789 .564098 .039316 .576571 .026843 .589044 .016951 .603853 .010205 .620151 .003459 .636449-.000009 .653916 0 .671555 0 .745807 .060081 .805888 .1343 .805888H2.820422C2.838064 .805897 2.855535 .802428 2.871835 .79568 2.888135 .788932 2.902945 .779036 2.915418 .76656 2.927891 .754084 2.937782 .739272 2.944526 .72297 2.95127 .706668 2.954735 .689197 2.954722 .671555 2.954731 .653916 2.951263 .636449 2.944517 .620151 2.937771 .603853 2.927879 .589044 2.915406 .576571 2.902933 .564098 2.888125 .554206 2.871827 .547461 2.855529 .540714 2.838061 .537247 2.820422 .537256ZM1.477394 .000024H.134333C.116691 .000015 .099221 .003485 .082921 .010233 .066621 .016981 .051811 .026875 .039337 .039352 .026864 .051828 .016973 .066641 .010229 .082943 .003485 .099245 .000021 .116715 .000034 .134357 .000025 .151996 .003493 .169464 .010239 .185762 .016985 .20206 .026877 .216868 .039349 .229341 .051822 .241814 .066631 .251706 .082929 .258451 .099227 .265198 .116694 .268666 .134333 .268657H1.477394C1.495033 .268666 1.512501 .265198 1.528799 .258451 1.545097 .251706 1.559906 .241814 1.572378 .229341 1.584851 .216868 1.594743 .20206 1.601489 .185762 1.608235 .169464 1.611702 .151996 1.611694 .134357 1.611694 .060104 1.551613 .000024 1.477394 .000024Z" fill="#ffffff"/>
<path transform="matrix(1,0,0,-1,7.171875,22.246094)" d="M1.730831 2.691679V1.730106L2.211617 2.018578M3.461662 1.730106C3.461662 .774188 2.68675-.000725 1.730831-.000725 .77492-.000725 0 .774188 0 1.730106 0 2.686018 .77492 3.460938 1.730831 3.460938 2.68675 3.460938 3.461662 2.686018 3.461662 1.730106Z" fill="#424141"/>
<path transform="matrix(1,0,0,-1,7.171875,22.746094)" d="M1.980831 3.191679C1.980831 3.329751 1.868902 3.441679 1.730831 3.441679 1.59276 3.441679 1.480831 3.329751 1.480831 3.191679H1.980831ZM1.730831 2.230106H1.480831C1.480831 2.140038 1.529279 2.056933 1.607656 2.012556 1.686034 1.96818 1.782223 1.969393 1.859455 2.015733L1.730831 2.230106ZM2.340241 2.304205C2.458637 2.375242 2.497028 2.528807 2.425991 2.647202 2.354954 2.765597 2.201389 2.803988 2.082994 2.732952L2.340241 2.304205ZM1.480831 3.191679V2.230106H1.980831V3.191679H1.480831ZM1.859455 2.015733 2.340241 2.304205 2.082994 2.732952 1.602207 2.444479 1.859455 2.015733ZM3.211662 2.230106C3.211662 1.412259 2.548679 .749275 1.730831 .749275V.249275C2.824821 .249275 3.711662 1.136116 3.711662 2.230106H3.211662ZM1.730831 .749275C.912991 .749275 .25 1.41226 .25 2.230106H-.25C-.25 1.136116 .63685 .249275 1.730831 .249275V.749275ZM.25 2.230106C.25 3.047946 .912991 3.710938 1.730831 3.710938V4.210938C.636849 4.210938-.25 3.324089-.25 2.230106H.25ZM1.730831 3.710938C2.548678 3.710938 3.211662 3.047947 3.211662 2.230106H3.711662C3.711662 3.324088 2.824822 4.210938 1.730831 4.210938V3.710938Z" fill="#fffdfd"/>
</svg>
