<?xml version="1.0" encoding="UTF-8"?>
<svg version="1.1" xmlns="http://www.w3.org/2000/svg" width="19" height="16">
<path d="M0 0 C1.25425781 0.02707031 2.50851563 0.05414062 3.80078125 0.08203125 C4.75339844 0.11683594 5.70601562 0.15164063 6.6875 0.1875 C6.7955023 2.29054477 6.87308987 4.39516909 6.9375 6.5 C6.98390625 7.67175781 7.0303125 8.84351563 7.078125 10.05078125 C6.6875 13.1875 6.6875 13.1875 5.08984375 15.08984375 C1.92778549 16.53462159 -0.53470593 16.51511017 -4 16.4375 C-5.15886719 16.42203125 -6.31773438 16.4065625 -7.51171875 16.390625 C-10.3125 16.1875 -10.3125 16.1875 -11.3125 15.1875 C-11.54677778 13.17155418 -11.72586124 11.149026 -11.875 9.125 C-11.95878906 8.02027344 -12.04257813 6.91554688 -12.12890625 5.77734375 C-12.21978516 4.49537109 -12.21978516 4.49537109 -12.3125 3.1875 C-8.11677648 0.13095954 -5.13357724 -0.14393207 0 0 Z M2.6875 6.1875 C2.6875 8.4975 2.6875 10.8075 2.6875 13.1875 C3.3475 12.8575 4.0075 12.5275 4.6875 12.1875 C4.6875 10.2075 4.6875 8.2275 4.6875 6.1875 C4.0275 6.1875 3.3675 6.1875 2.6875 6.1875 Z M-9.3125 7.1875 C-9.3125 9.4975 -9.3125 11.8075 -9.3125 14.1875 C-8.6525 14.1875 -7.9925 14.1875 -7.3125 14.1875 C-7.3125 11.8775 -7.3125 9.5675 -7.3125 7.1875 C-7.9725 7.1875 -8.6325 7.1875 -9.3125 7.1875 Z M-5.3125 7.1875 C-5.3125 9.4975 -5.3125 11.8075 -5.3125 14.1875 C-4.6525 14.1875 -3.9925 14.1875 -3.3125 14.1875 C-3.3125 11.8775 -3.3125 9.5675 -3.3125 7.1875 C-3.9725 7.1875 -4.6325 7.1875 -5.3125 7.1875 Z M-1.3125 7.1875 C-1.3125 9.4975 -1.3125 11.8075 -1.3125 14.1875 C-0.6525 14.1875 0.0075 14.1875 0.6875 14.1875 C0.6875 11.8775 0.6875 9.5675 0.6875 7.1875 C0.0275 7.1875 -0.6325 7.1875 -1.3125 7.1875 Z " fill="#000000" transform="translate(12.3125,-0.1875)"/>
</svg>
