<svg width="12" height="13" viewBox="0 0 12 13" fill="none" xmlns="http://www.w3.org/2000/svg">
<path d="M0.6 12.5H11.4C11.5591 12.5 11.7117 12.4368 11.8243 12.3243C11.9368 12.2117 12 12.0591 12 11.9V2.9C12 2.74087 11.9368 2.58826 11.8243 2.47574C11.7117 2.36321 11.5591 2.3 11.4 2.3H9V1.1C9 0.94087 8.93679 0.788258 8.82426 0.675736C8.71174 0.563214 8.55913 0.5 8.4 0.5C8.24087 0.5 8.08826 0.563214 7.97574 0.675736C7.86321 0.788258 7.8 0.94087 7.8 1.1V2.3H4.2V1.1C4.2 0.94087 4.13679 0.788258 4.02426 0.675736C3.91174 0.563214 3.75913 0.5 3.6 0.5C3.44087 0.5 3.28826 0.563214 3.17574 0.675736C3.06321 0.788258 3 0.94087 3 1.1V2.3H0.6C0.44087 2.3 0.288258 2.36321 0.175736 2.47574C0.0632141 2.58826 0 2.74087 0 2.9V11.9C0 12.0591 0.0632141 12.2117 0.175736 12.3243C0.288258 12.4368 0.44087 12.5 0.6 12.5ZM1.2 3.5H10.8V5.3H1.2V3.5ZM1.2 6.5H10.8V11.3H1.2V6.5Z" fill="#333333"/>
</svg>
