<svg width="14" height="15" viewBox="0 0 14 15" fill="none" xmlns="http://www.w3.org/2000/svg">
<g clip-path="url(#clip0_408_578)">
<path d="M11.2623 1.94034H10.4913V1.15234C10.4913 1.01974 10.4386 0.892558 10.3448 0.79879C10.2511 0.705022 10.1239 0.652344 9.99128 0.652344C9.85867 0.652344 9.7315 0.705022 9.63773 0.79879C9.54396 0.892558 9.49128 1.01974 9.49128 1.15234V1.94034H4.50928V1.15234C4.50928 1.01974 4.4566 0.892558 4.36283 0.79879C4.26907 0.705022 4.14189 0.652344 4.00928 0.652344C3.87667 0.652344 3.7495 0.705022 3.65573 0.79879C3.56196 0.892558 3.50928 1.01974 3.50928 1.15234V1.94034H2.73828C2.07524 1.94034 1.43936 2.20374 0.970514 2.67258C0.501673 3.14142 0.238281 3.7773 0.238281 4.44034V11.8463C0.238281 12.1746 0.302946 12.4997 0.428582 12.8031C0.554219 13.1064 0.738368 13.382 0.970514 13.6141C1.20266 13.8463 1.47826 14.0304 1.78157 14.156C2.08489 14.2817 2.40998 14.3463 2.73828 14.3463H11.2623C11.9253 14.3463 12.5612 14.083 13.03 13.6141C13.4989 13.1453 13.7623 12.5094 13.7623 11.8463V4.44034C13.7623 3.7773 13.4989 3.14142 13.03 2.67258C12.5612 2.20374 11.9253 1.94034 11.2623 1.94034ZM2.73828 2.94034H11.2623C11.6601 2.94034 12.0416 3.09838 12.3229 3.37968C12.6042 3.66099 12.7623 4.04252 12.7623 4.44034V4.81634H1.23828V4.44034C1.23828 4.04252 1.39632 3.66099 1.67762 3.37968C1.95893 3.09838 2.34046 2.94034 2.73828 2.94034ZM11.2623 13.3463H2.73828C2.34046 13.3463 1.95893 13.1883 1.67762 12.907C1.39632 12.6257 1.23828 12.2442 1.23828 11.8463V5.81634H12.7623V11.8463C12.7623 12.2442 12.6042 12.6257 12.3229 12.907C12.0416 13.1883 11.6601 13.3463 11.2623 13.3463ZM3.82128 7.98934C3.89122 8.05926 3.93886 8.14836 3.95816 8.24535C3.97747 8.34234 3.96758 8.44289 3.92974 8.53426C3.8919 8.62563 3.82781 8.70373 3.74558 8.75867C3.66335 8.81362 3.56668 8.84295 3.46778 8.84295C3.36888 8.84295 3.27221 8.81362 3.18998 8.75867C3.10775 8.70373 3.04367 8.62563 3.00583 8.53426C2.96799 8.44289 2.9581 8.34234 2.9774 8.24535C2.9967 8.14836 3.04434 8.05926 3.11428 7.98934C3.20805 7.89561 3.3352 7.84295 3.46778 7.84295C3.60036 7.84295 3.72752 7.89561 3.82128 7.98934ZM6.17628 7.98934C6.24622 8.05926 6.29386 8.14836 6.31316 8.24535C6.33247 8.34234 6.32258 8.44289 6.28474 8.53426C6.2469 8.62563 6.18281 8.70373 6.10058 8.75867C6.01835 8.81362 5.92168 8.84295 5.82278 8.84295C5.72388 8.84295 5.62721 8.81362 5.54498 8.75867C5.46275 8.70373 5.39867 8.62563 5.36083 8.53426C5.32299 8.44289 5.31309 8.34234 5.3324 8.24535C5.3517 8.14836 5.39934 8.05926 5.46928 7.98934C5.56305 7.89561 5.6902 7.84295 5.82278 7.84295C5.95536 7.84295 6.08252 7.89561 6.17628 7.98934ZM8.53128 7.98934C8.60122 8.05926 8.64886 8.14836 8.66816 8.24535C8.68747 8.34234 8.67757 8.44289 8.63974 8.53426C8.6019 8.62563 8.53781 8.70373 8.45558 8.75867C8.37335 8.81362 8.27668 8.84295 8.17778 8.84295C8.07888 8.84295 7.98221 8.81362 7.89998 8.75867C7.81775 8.70373 7.75367 8.62563 7.71583 8.53426C7.67799 8.44289 7.6681 8.34234 7.6874 8.24535C7.7067 8.14836 7.75434 8.05926 7.82428 7.98934C7.91805 7.89561 8.0452 7.84295 8.17778 7.84295C8.31036 7.84295 8.43752 7.89561 8.53128 7.98934ZM10.8863 7.98934C10.9562 8.05926 11.0039 8.14836 11.0232 8.24535C11.0425 8.34234 11.0326 8.44289 10.9947 8.53426C10.9569 8.62563 10.8928 8.70373 10.8106 8.75867C10.7284 8.81362 10.6317 8.84295 10.5328 8.84295C10.4339 8.84295 10.3372 8.81362 10.255 8.75867C10.1728 8.70373 10.1087 8.62563 10.0708 8.53426C10.033 8.44289 10.0231 8.34234 10.0424 8.24535C10.0617 8.14836 10.1093 8.05926 10.1793 7.98934C10.273 7.89561 10.4002 7.84295 10.5328 7.84295C10.6654 7.84295 10.7925 7.89561 10.8863 7.98934ZM3.82128 10.4673C3.89122 10.5373 3.93886 10.6264 3.95816 10.7233C3.97747 10.8203 3.96758 10.9209 3.92974 11.0123C3.8919 11.1036 3.82781 11.1817 3.74558 11.2367C3.66335 11.2916 3.56668 11.321 3.46778 11.321C3.36888 11.321 3.27221 11.2916 3.18998 11.2367C3.10775 11.1817 3.04367 11.1036 3.00583 11.0123C2.96799 10.9209 2.9581 10.8203 2.9774 10.7233C2.9967 10.6264 3.04434 10.5373 3.11428 10.4673C3.20805 10.3736 3.3352 10.321 3.46778 10.321C3.60036 10.321 3.72752 10.3736 3.82128 10.4673ZM6.17628 10.4673C6.24622 10.5373 6.29386 10.6264 6.31316 10.7233C6.33247 10.8203 6.32258 10.9209 6.28474 11.0123C6.2469 11.1036 6.18281 11.1817 6.10058 11.2367C6.01835 11.2916 5.92168 11.321 5.82278 11.321C5.72388 11.321 5.62721 11.2916 5.54498 11.2367C5.46275 11.1817 5.39867 11.1036 5.36083 11.0123C5.32299 10.9209 5.31309 10.8203 5.3324 10.7233C5.3517 10.6264 5.39934 10.5373 5.46928 10.4673C5.56305 10.3736 5.6902 10.321 5.82278 10.321C5.95536 10.321 6.08252 10.3736 6.17628 10.4673ZM8.53128 10.4673C8.60122 10.5373 8.64886 10.6264 8.66816 10.7233C8.68747 10.8203 8.67757 10.9209 8.63974 11.0123C8.6019 11.1036 8.53781 11.1817 8.45558 11.2367C8.37335 11.2916 8.27668 11.321 8.17778 11.321C8.07888 11.321 7.98221 11.2916 7.89998 11.2367C7.81775 11.1817 7.75367 11.1036 7.71583 11.0123C7.67799 10.9209 7.6681 10.8203 7.6874 10.7233C7.7067 10.6264 7.75434 10.5373 7.82428 10.4673C7.91805 10.3736 8.0452 10.321 8.17778 10.321C8.31036 10.321 8.43752 10.3736 8.53128 10.4673Z" fill="#777777"/>
</g>
<defs>
<clipPath id="clip0_408_578">
<rect width="14" height="14" fill="white" transform="translate(0 0.5)"/>
</clipPath>
</defs>
</svg>
