<svg width="29" height="29" viewBox="0 0 29 29" fill="none" xmlns="http://www.w3.org/2000/svg">
<g clip-path="url(#clip0_17192_8824)">
<path d="M28.1393 8.80853L24.8828 19.065C24.6393 19.7955 24.0002 20.2824 23.2393 20.2824H10.6698C9.93933 20.2824 9.23933 19.8259 8.99585 19.1564L4.18715 6.28244H1.41759C0.748021 6.28244 0.200195 5.73461 0.200195 5.06505C0.200195 4.39548 0.748021 3.84766 1.41759 3.84766H5.03933C5.55672 3.84766 6.01324 4.18244 6.19585 4.6694L11.1567 17.8477H22.7219L25.3089 9.63026H10.9741C10.3045 9.63026 9.75672 9.08244 9.75672 8.41287C9.75672 7.74331 10.3045 7.19548 10.9741 7.19548H26.9828C27.3785 7.19548 27.7437 7.40853 27.9567 7.71287C28.2002 8.01722 28.2611 8.44331 28.1393 8.80853ZM11.2785 21.8955C10.7611 21.8955 10.2437 22.1085 9.87846 22.4737C9.51324 22.839 9.30019 23.3564 9.30019 23.8737C9.30019 24.3911 9.51324 24.9085 9.87846 25.2737C10.2437 25.639 10.7611 25.852 11.2785 25.852C11.7958 25.852 12.3132 25.639 12.6785 25.2737C13.0437 24.9085 13.2567 24.3911 13.2567 23.8737C13.2567 23.3564 13.0437 22.839 12.6785 22.4737C12.3132 22.1085 11.7958 21.8955 11.2785 21.8955ZM22.2045 21.8955C21.6872 21.8955 21.1698 22.1085 20.8045 22.4737C20.4393 22.839 20.2263 23.3564 20.2263 23.8737C20.2263 24.3911 20.4393 24.9085 20.8045 25.2737C21.1698 25.639 21.6872 25.852 22.2045 25.852C22.7219 25.852 23.2393 25.639 23.6045 25.2737C23.9698 24.9085 24.1828 24.3911 24.1828 23.8737C24.1828 23.3564 23.9698 22.839 23.6045 22.4737C23.2393 22.1085 22.7219 21.8955 22.2045 21.8955Z" fill="#9A9A9A"/>
</g>
<defs>
<clipPath id="clip0_17192_8824">
<rect width="28" height="28" fill="white" transform="translate(0.200195 0.5)"/>
</clipPath>
</defs>
</svg>
