<svg width="28" height="29" viewBox="0 0 28 29" fill="none" xmlns="http://www.w3.org/2000/svg">
<path fill-rule="evenodd" clip-rule="evenodd" d="M19.7724 1.77246H23.9299C25.65 1.77246 27.0454 3.17997 27.0454 4.91633V9.10859C27.0454 10.8436 25.65 12.2525 23.9299 12.2525H19.7724C18.051 12.2525 16.6556 10.8436 16.6556 9.10859V4.91633C16.6556 3.17997 18.051 1.77246 19.7724 1.77246ZM4.70763 1.77246H8.86381C10.5852 1.77246 11.9806 3.17997 11.9806 4.91633V9.10859C11.9806 10.8436 10.5852 12.2525 8.86381 12.2525H4.70763C2.98621 12.2525 1.59082 10.8436 1.59082 9.10859V4.91633C1.59082 3.17997 2.98621 1.77246 4.70763 1.77246ZM4.70763 16.747H8.86381C10.5852 16.747 11.9806 18.1545 11.9806 19.8922V24.0831C11.9806 25.8195 10.5852 27.227 8.86381 27.227H4.70763C2.98621 27.227 1.59082 25.8195 1.59082 24.0831V19.8922C1.59082 18.1545 2.98621 16.747 4.70763 16.747ZM19.7724 16.747H23.9299C25.65 16.747 27.0454 18.1545 27.0454 19.8922V24.0831C27.0454 25.8195 25.65 27.227 23.9299 27.227H19.7724C18.051 27.227 16.6556 25.8195 16.6556 24.0831V19.8922C16.6556 18.1545 18.051 16.747 19.7724 16.747Z" stroke="#9A9A9A" stroke-width="1.5" stroke-linecap="round" stroke-linejoin="round"/>
</svg>
