<svg width="22" height="29" viewBox="0 0 22 29" fill="none" xmlns="http://www.w3.org/2000/svg">
<g clip-path="url(#clip0_17192_8818)">
<path d="M20.6381 5.56843C20.6307 5.5087 20.6166 5.45 20.5961 5.39343C20.5961 5.39343 20.5961 5.34443 20.5961 5.33043C20.5676 5.25735 20.5247 5.19071 20.4701 5.13443L16.5571 1.00443L16.5011 0.962433C16.4578 0.921904 16.4081 0.888792 16.3541 0.864433H16.2771C16.2213 0.857689 16.1649 0.857689 16.1091 0.864433H0.905078C0.719427 0.864433 0.541379 0.938183 0.410104 1.06946C0.278828 1.20073 0.205078 1.37878 0.205078 1.56443V27.5134C0.205078 27.6991 0.278828 27.8771 0.410104 28.0084C0.541379 28.1397 0.719427 28.2134 0.905078 28.2134H19.9451C20.1307 28.2134 20.3088 28.1397 20.4401 28.0084C20.5713 27.8771 20.6451 27.6991 20.6451 27.5134V5.61743C20.6451 5.61743 20.6381 5.58943 20.6381 5.56843ZM16.7251 3.24443L18.3141 4.91743H16.7251V3.24443ZM1.60508 26.8134V2.18743H15.3251V5.61743C15.3251 5.80308 15.3988 5.98113 15.5301 6.11241C15.6614 6.24368 15.8394 6.31743 16.0251 6.31743H19.2451V26.8134H1.60508Z" fill="#9A9A9A"/>
<path d="M8.22744 12.4004H4.22344C4.03779 12.4004 3.85974 12.4742 3.72846 12.6055C3.59719 12.7367 3.52344 12.9148 3.52344 13.1004V17.0904C3.52344 17.2761 3.59719 17.4541 3.72846 17.5854C3.85974 17.7167 4.03779 17.7904 4.22344 17.7904H8.22744C8.41309 17.7904 8.59114 17.7167 8.72241 17.5854C8.85369 17.4541 8.92744 17.2761 8.92744 17.0904V13.1004C8.92744 12.9148 8.85369 12.7367 8.72241 12.6055C8.59114 12.4742 8.41309 12.4004 8.22744 12.4004ZM7.52744 16.3974H4.92344V13.8004H7.52744V16.3974ZM11.1254 9.34843H16.7254C16.9111 9.34843 17.0891 9.27468 17.2204 9.14341C17.3517 9.01213 17.4254 8.83409 17.4254 8.64843C17.4254 8.46278 17.3517 8.28473 17.2204 8.15346C17.0891 8.02218 16.9111 7.94843 16.7254 7.94843H11.1254C10.9398 7.94843 10.7617 8.02218 10.6305 8.15346C10.4992 8.28473 10.4254 8.46278 10.4254 8.64843C10.4254 8.83409 10.4992 9.01213 10.6305 9.14341C10.7617 9.27468 10.9398 9.34843 11.1254 9.34843ZM16.7254 14.3884H11.1254C10.9398 14.3884 10.7617 14.4622 10.6305 14.5935C10.4992 14.7247 10.4254 14.9028 10.4254 15.0884C10.4254 15.2741 10.4992 15.4521 10.6305 15.5834C10.7617 15.7147 10.9398 15.7884 11.1254 15.7884H16.7254C16.9111 15.7884 17.0891 15.7147 17.2204 15.5834C17.3517 15.4521 17.4254 15.2741 17.4254 15.0884C17.4254 14.9028 17.3517 14.7247 17.2204 14.5935C17.0891 14.4622 16.9111 14.3884 16.7254 14.3884ZM8.22744 18.9104H4.22344C4.03779 18.9104 3.85974 18.9842 3.72846 19.1155C3.59719 19.2467 3.52344 19.4248 3.52344 19.6104V23.6004C3.52344 23.7861 3.59719 23.9641 3.72846 24.0954C3.85974 24.2267 4.03779 24.3004 4.22344 24.3004H8.22744C8.41309 24.3004 8.59114 24.2267 8.72241 24.0954C8.85369 23.9641 8.92744 23.7861 8.92744 23.6004V19.6104C8.92744 19.4248 8.85369 19.2467 8.72241 19.1155C8.59114 18.9842 8.41309 18.9104 8.22744 18.9104ZM7.52744 22.9074H4.92344V20.3104H7.52744V22.9074ZM17.4254 20.9054H11.1254C10.9398 20.9054 10.7617 20.9792 10.6305 21.1105C10.4992 21.2417 10.4254 21.4198 10.4254 21.6054C10.4254 21.7911 10.4992 21.9691 10.6305 22.1004C10.7617 22.2317 10.9398 22.3054 11.1254 22.3054H17.4254C17.6111 22.3054 17.7891 22.2317 17.9204 22.1004C18.0517 21.9691 18.1254 21.7911 18.1254 21.6054C18.1254 21.4198 18.0517 21.2417 17.9204 21.1105C17.7891 20.9792 17.6111 20.9054 17.4254 20.9054ZM10.3834 5.72243C10.2589 5.58534 10.0851 5.50321 9.90006 5.49403C9.71506 5.48484 9.53396 5.54936 9.39644 5.67343L5.84744 8.90043L4.86744 7.87143C4.73699 7.75186 4.5661 7.68613 4.38915 7.68747C4.2122 7.68881 4.04232 7.75711 3.9137 7.87864C3.78507 8.00016 3.70725 8.1659 3.69588 8.34249C3.68452 8.51908 3.74045 8.69342 3.85244 8.83043L5.29444 10.3634C5.36031 10.4325 5.43963 10.4874 5.52751 10.5248C5.61538 10.5621 5.70997 10.581 5.80544 10.5804C5.97892 10.58 6.14606 10.5151 6.27444 10.3984L10.3414 6.71643C10.4099 6.65418 10.4653 6.57897 10.5045 6.49517C10.5437 6.41137 10.5659 6.32063 10.5698 6.22819C10.5737 6.13576 10.5592 6.04347 10.5272 5.95666C10.4952 5.86985 10.4464 5.79024 10.3834 5.72243Z" fill="#9A9A9A"/>
</g>
<defs>
<clipPath id="clip0_17192_8818">
<rect width="21" height="28" fill="white" transform="translate(0.0996094 0.5)"/>
</clipPath>
</defs>
</svg>
