<svg width="14" height="14" viewBox="0 0 14 14" fill="none" xmlns="http://www.w3.org/2000/svg">
<g clip-path="url(#clip0_17796_45020)">
<path d="M7.00014 6.98118C6.52131 6.98193 6.04825 6.87661 5.61496 6.67279C5.18166 6.46897 4.79889 6.17172 4.49414 5.80238L5.14094 5.26758C5.36741 5.54115 5.65147 5.76137 5.97284 5.91254C6.29422 6.0637 6.64499 6.14207 7.00014 6.14207C7.35529 6.14207 7.70606 6.0637 8.02744 5.91254C8.34881 5.76137 8.63287 5.54115 8.85934 5.26758L9.50614 5.80378C9.201 6.17256 8.81811 6.46934 8.38489 6.67289C7.95166 6.87643 7.4788 6.98171 7.00014 6.98118Z" fill="#22AB0B"/>
<path d="M11.1258 13.5251H2.87282L2.84062 13.1401C2.82522 12.9553 2.49342 8.45706 2.42902 6.94926C2.00766 6.88815 1.60543 6.73311 1.25207 6.4956C0.898708 6.25808 0.603258 5.94418 0.387569 5.57709C0.17188 5.21 0.0414682 4.79912 0.00597926 4.37484C-0.0295097 3.95055 0.0308316 3.52372 0.182541 3.1259C0.33425 2.72808 0.573446 2.36945 0.88244 2.07653C1.19143 1.78362 1.56232 1.56391 1.96767 1.43366C2.37302 1.3034 2.80247 1.26594 3.22426 1.32403C3.64604 1.38212 4.04937 1.53428 4.40442 1.76926C4.70758 1.36768 5.09978 1.04193 5.55018 0.817619C6.00057 0.593309 6.49686 0.476562 7.00002 0.476562C7.50318 0.476562 7.99947 0.593309 8.44987 0.817619C8.90026 1.04193 9.29246 1.36768 9.59562 1.76926C10.1531 1.40197 10.8221 1.24276 11.4853 1.31957C12.1484 1.39638 12.7633 1.70429 13.2221 2.18928C13.6808 2.67426 13.9541 3.30533 13.994 3.97172C14.0338 4.63811 13.8377 5.29725 13.44 5.83346C12.9892 6.43942 12.3167 6.84213 11.5696 6.95345C11.5052 8.46126 11.1734 12.9609 11.158 13.1457L11.1258 13.5251ZM3.64002 12.6851H10.36C10.458 11.5007 10.7464 7.37906 10.7464 6.55866V6.13866H11.1664C11.4784 6.13994 11.7862 6.06743 12.0648 5.92704C12.3434 5.78665 12.5849 5.58236 12.7694 5.33086C13.0256 4.98672 13.1628 4.56848 13.16 4.13946C13.1603 3.7482 13.0458 3.36546 12.8307 3.03865C12.6156 2.71184 12.3093 2.45534 11.9498 2.30093C11.5903 2.14652 11.1934 2.10099 10.8083 2.16998C10.4232 2.23897 10.0668 2.41945 9.78322 2.68906L9.38002 3.06706L9.11962 2.58406C8.91311 2.20059 8.60662 1.88019 8.2327 1.65686C7.85877 1.43354 7.43136 1.31561 6.99582 1.31561C6.56028 1.31561 6.13287 1.43354 5.75894 1.65686C5.38502 1.88019 5.07853 2.20059 4.87202 2.58406L4.62002 3.06566L4.22102 2.68766C3.98406 2.46253 3.69555 2.2989 3.38073 2.21106C3.06591 2.12322 2.73436 2.11385 2.41508 2.18377C2.09579 2.2537 1.79851 2.40078 1.54922 2.61217C1.29992 2.82355 1.10622 3.0928 0.985043 3.39635C0.863867 3.69991 0.81891 4.02853 0.854105 4.35348C0.889299 4.67842 1.00357 4.9898 1.18693 5.26037C1.37029 5.53095 1.61715 5.75247 1.90592 5.90558C2.19469 6.05869 2.51657 6.13871 2.84342 6.13866H3.26342V6.55866C3.25922 7.38046 3.54762 11.5007 3.64002 12.6851Z" fill="#22AB0B"/>
</g>
<defs>
<clipPath id="clip0_17796_45020">
<rect width="14" height="14" fill="white"/>
</clipPath>
</defs>
</svg>
