<svg width="18" height="17" viewBox="0 0 18 17" fill="none" xmlns="http://www.w3.org/2000/svg">
<path fill-rule="evenodd" clip-rule="evenodd" d="M1.16129 6.04213C1.16129 3.28587 3.9211 1.05081 7.54839 1.05081C10.4359 1.05081 13.3548 3.28587 13.3548 6.04213C13.3548 8.79892 11.0758 11.0335 7.54839 11.0335C7.02987 11.0335 5.94813 10.9799 5.46561 10.889L3.48387 12.0843V10.2222C2.06768 9.18247 1.16129 7.79383 1.16129 6.04213ZM5.59567 11.9456C6.04683 12.0123 7.07284 12.0843 7.54839 12.0843C11.7174 12.0843 14.5161 9.27704 14.5161 5.97646C14.5161 2.67588 11.0189 0 7.54839 0C3.37413 0 0 2.67588 0 5.97646C0 7.88893 0.805355 9.5119 2.32258 10.6809V13.6605L5.59567 11.9456ZM15.6478 4.80166C15.6588 4.95193 15.6774 5.10114 15.6774 5.25403C15.6774 5.58819 15.6414 5.91551 15.5897 6.23863C16.3713 7.06667 16.8387 8.087 16.8387 9.19455C16.8387 10.9462 15.6821 12.4841 13.9355 13.3747V15.2367L11.9537 14.0414C11.4712 14.1323 10.9701 14.1859 10.4516 14.1859C8.94774 14.1859 8.14877 13.7771 7.05716 13.0978C6.7407 13.1209 6.42135 13.1351 6.09677 13.1351C5.86568 13.1351 5.63923 13.1204 5.41162 13.1083C6.79413 14.3309 8.21555 15.1053 10.4516 15.1053C10.9272 15.1053 11.3911 15.0665 11.8423 14.9997L15.0968 16.8129V13.8333C16.8619 12.7389 18 11.0413 18 9.12888C18 7.42447 17.0936 5.8903 15.6478 4.80166ZM10.7419 6.83024C11.2233 6.83024 11.6129 6.47769 11.6129 6.04213C11.6129 5.6071 11.2233 5.25403 10.7419 5.25403C10.2606 5.25403 9.87097 5.6071 9.87097 6.04213C9.87097 6.47769 10.2606 6.83024 10.7419 6.83024ZM3.77419 6.83024C4.25555 6.83024 4.64516 6.47769 4.64516 6.04213C4.64516 5.6071 4.25555 5.25403 3.77419 5.25403C3.29284 5.25403 2.90323 5.6071 2.90323 6.04213C2.90323 6.47769 3.29284 6.83024 3.77419 6.83024ZM7.25806 6.83024C7.73942 6.83024 8.12903 6.47769 8.12903 6.04213C8.12903 5.6071 7.73942 5.25403 7.25806 5.25403C6.77671 5.25403 6.3871 5.6071 6.3871 6.04213C6.3871 6.47769 6.77671 6.83024 7.25806 6.83024Z" fill="#333333"/>
</svg>
