<svg width="11" height="14" viewBox="0 0 11 14" fill="none" xmlns="http://www.w3.org/2000/svg">
<g clip-path="url(#clip0_17873_30130)">
<path d="M9.24504 0.494141H1.71225C1.34904 0.494141 1.00071 0.638425 0.743885 0.895252C0.487057 1.15208 0.342773 1.50041 0.342773 1.86362V13.5051L1.33785 12.4574C1.37688 12.4163 1.424 12.3837 1.47624 12.3617C1.52847 12.3397 1.5847 12.3287 1.64138 12.3295C1.69806 12.3302 1.75397 12.3427 1.80558 12.3662C1.8572 12.3896 1.90341 12.4234 1.94131 12.4656L2.5833 13.179C2.62089 13.2207 2.66665 13.2543 2.71775 13.2777C2.76884 13.3011 2.82419 13.3137 2.88036 13.3148C2.93653 13.316 2.99234 13.3056 3.04434 13.2843C3.09633 13.263 3.14341 13.2312 3.18265 13.191L3.90553 12.4494C3.94478 12.4092 3.99187 12.3774 4.04389 12.3561C4.0959 12.3348 4.15174 12.3244 4.20795 12.3255C4.26416 12.3266 4.31953 12.3393 4.37065 12.3627C4.42177 12.3861 4.46754 12.4197 4.50514 12.4615L5.15098 13.179C5.18857 13.2208 5.23435 13.2544 5.28547 13.2778C5.33659 13.3012 5.39196 13.3138 5.44817 13.315C5.50437 13.3161 5.56021 13.3057 5.61223 13.2844C5.66425 13.263 5.71134 13.2313 5.75059 13.191L6.47346 12.4494C6.51271 12.4092 6.5598 12.3774 6.61182 12.3561C6.66384 12.3348 6.71968 12.3244 6.77588 12.3255C6.83209 12.3266 6.88747 12.3393 6.93858 12.3627C6.9897 12.3861 7.03548 12.4197 7.07308 12.4615L7.71891 13.179C7.75651 13.2208 7.80228 13.2544 7.8534 13.2778C7.90452 13.3012 7.9599 13.3138 8.0161 13.315C8.07231 13.3161 8.12815 13.3057 8.18017 13.2844C8.23218 13.263 8.27927 13.2313 8.31852 13.191L9.04576 12.4453C9.08467 12.4054 9.13128 12.3738 9.18278 12.3525C9.23427 12.3312 9.28957 12.3205 9.3453 12.3213C9.40103 12.322 9.45603 12.334 9.50696 12.3567C9.55788 12.3793 9.60367 12.4121 9.64152 12.453L10.6145 13.5051V1.86362C10.6145 1.50041 10.4702 1.15208 10.2134 0.895252C9.95658 0.638425 9.60824 0.494141 9.24504 0.494141Z" fill="#FFC225"/>
<path fill-rule="evenodd" clip-rule="evenodd" d="M2.44311e-08 1.86439C1.9324e-08 1.41037 0.18034 0.974943 0.501355 0.65388C0.82237 0.332817 1.25777 0.152412 1.71179 0.152344H9.24457C9.69858 0.152412 10.134 0.332817 10.455 0.65388C10.776 0.974943 10.9564 1.41037 10.9564 1.86439V13.5056C10.9564 13.5745 10.9356 13.6417 10.8968 13.6986C10.858 13.7555 10.8029 13.7993 10.7388 13.8244C10.6747 13.8495 10.6045 13.8547 10.5374 13.8393C10.4703 13.8239 10.4094 13.7886 10.3626 13.738L9.38966 12.6862C9.38334 12.6794 9.3757 12.6739 9.36721 12.6701C9.35871 12.6663 9.34954 12.6643 9.34024 12.6642C9.33095 12.6641 9.32172 12.6659 9.31313 12.6694C9.30454 12.673 9.29677 12.6782 9.29028 12.6849L8.56329 13.4306C8.49137 13.5044 8.40507 13.5626 8.30973 13.6017C8.21439 13.6408 8.11205 13.6599 8.00903 13.6579C7.906 13.6559 7.8045 13.6327 7.71079 13.5898C7.61708 13.547 7.53316 13.4854 7.46422 13.4088L6.81812 12.6911C6.81185 12.6841 6.80423 12.6785 6.79572 12.6746C6.7872 12.6707 6.77798 12.6686 6.76862 12.6684C6.75926 12.6682 6.74997 12.67 6.7413 12.6735C6.73263 12.677 6.72478 12.6823 6.71823 12.689L5.99536 13.4306C5.92343 13.5044 5.83713 13.5626 5.74179 13.6017C5.64646 13.6408 5.54411 13.6599 5.44109 13.6579C5.33807 13.6559 5.23656 13.6327 5.14285 13.5898C5.04914 13.547 4.96522 13.4854 4.89628 13.4088L4.25019 12.6911C4.24392 12.6841 4.23629 12.6785 4.22778 12.6746C4.21927 12.6707 4.21005 12.6686 4.20069 12.6684C4.19133 12.6682 4.18203 12.67 4.17336 12.6735C4.1647 12.677 4.15685 12.6823 4.1503 12.689L3.42742 13.4306C3.3555 13.5044 3.26919 13.5626 3.17386 13.6017C3.07852 13.6408 2.97618 13.6599 2.87315 13.6579C2.77013 13.6559 2.66863 13.6327 2.57492 13.5898C2.48121 13.547 2.39729 13.4854 2.32835 13.4088L1.68636 12.6954C1.68003 12.6884 1.67232 12.6828 1.66371 12.6789C1.65509 12.675 1.64577 12.6729 1.63631 12.6728C1.62686 12.6727 1.61748 12.6745 1.60877 12.6782C1.60006 12.6818 1.59221 12.6873 1.5857 12.6941L0.590625 13.7413C0.543492 13.791 0.482542 13.8254 0.415654 13.8401C0.348766 13.8548 0.279015 13.849 0.215415 13.8237C0.151815 13.7983 0.0972909 13.7544 0.0588893 13.6977C0.0204877 13.641 -2.58416e-05 13.5741 2.44311e-08 13.5056V1.86439ZM1.71179 0.837212C1.43936 0.837212 1.1781 0.945432 0.985464 1.13806C0.792831 1.3307 0.684612 1.59196 0.684612 1.86439V12.6482L1.08906 12.2224C1.1606 12.1471 1.24695 12.0874 1.34268 12.047C1.43841 12.0067 1.54145 11.9866 1.64532 11.988C1.7492 11.9894 1.85166 12.0123 1.94627 12.0552C2.04088 12.0981 2.12559 12.1601 2.19507 12.2373L2.83705 12.9507C2.84334 12.9577 2.851 12.9633 2.85955 12.9672C2.86809 12.971 2.87735 12.9731 2.88674 12.9733C2.89613 12.9735 2.90545 12.9717 2.91414 12.9681C2.92282 12.9645 2.93067 12.9592 2.9372 12.9525L3.18219 13.1916L2.93695 12.9527L3.66008 12.2111C3.73201 12.1373 3.81831 12.0791 3.91364 12.04C4.00898 12.0009 4.11133 11.9818 4.21435 11.9838C4.31737 11.9859 4.41887 12.009 4.51258 12.0519C4.60629 12.0947 4.69021 12.1564 4.75915 12.2329L5.40499 12.9507C5.41128 12.9577 5.41894 12.9633 5.42748 12.9672C5.43603 12.971 5.44528 12.9731 5.45468 12.9733C5.46407 12.9735 5.47339 12.9717 5.48207 12.9681C5.49075 12.9645 5.4986 12.9592 5.50514 12.9525L5.75012 13.1916L5.50488 12.9527L6.22801 12.2111C6.29994 12.1373 6.38624 12.0791 6.48158 12.04C6.57692 12.0009 6.67926 11.9818 6.78228 11.9838C6.8853 11.9859 6.98681 12.009 7.08052 12.0519C7.17423 12.0947 7.25815 12.1564 7.32709 12.2329L7.97293 12.9507C7.97922 12.9577 7.98687 12.9633 7.99542 12.9672C8.00396 12.971 8.01322 12.9731 8.02261 12.9733C8.032 12.9735 8.04132 12.9717 8.05001 12.9681C8.05869 12.9645 8.06654 12.9592 8.07308 12.9525L8.7998 12.2067C8.87114 12.1335 8.95664 12.0756 9.0511 12.0364C9.14556 11.9973 9.24699 11.9778 9.34922 11.9792C9.45145 11.9805 9.55233 12.0027 9.64573 12.0443C9.73912 12.0859 9.82307 12.146 9.89246 12.2211L10.2717 12.6312V1.86439C10.2717 1.59196 10.1635 1.3307 9.97089 1.13806C9.77826 0.945432 9.51699 0.837212 9.24457 0.837212H1.71179Z" fill="#EAB11E"/>
<path fill-rule="evenodd" clip-rule="evenodd" d="M8.11667 4.01873C8.25046 4.15226 8.25046 4.369 8.11667 4.50279L3.32336 9.29635C3.29156 9.32815 3.2538 9.35338 3.21225 9.37059C3.17071 9.3878 3.12617 9.39666 3.0812 9.39666C3.03623 9.39666 2.9917 9.3878 2.95015 9.37059C2.9086 9.35338 2.87084 9.32815 2.83904 9.29635C2.80724 9.26455 2.78202 9.2268 2.76481 9.18525C2.7476 9.1437 2.73874 9.09917 2.73874 9.0542C2.73874 9.00922 2.7476 8.96469 2.76481 8.92314C2.78202 8.88159 2.80724 8.84384 2.83904 8.81204L7.63261 4.01873C7.76614 3.88494 7.98314 3.88494 8.11667 4.01873ZM3.56038 5.08263C3.6512 5.08263 3.7383 5.04655 3.80252 4.98233C3.86673 4.91811 3.90281 4.83101 3.90281 4.74019C3.90281 4.64937 3.86673 4.56227 3.80252 4.49806C3.7383 4.43384 3.6512 4.39776 3.56038 4.39776C3.46956 4.39776 3.38246 4.43384 3.31824 4.49806C3.25402 4.56227 3.21794 4.64937 3.21794 4.74019C3.21794 4.83101 3.25402 4.91811 3.31824 4.98233C3.38246 5.04655 3.46956 5.08263 3.56038 5.08263ZM3.56038 5.76724C3.8328 5.76724 4.09407 5.65902 4.2867 5.46639C4.47933 5.27375 4.58755 5.01249 4.58755 4.74006C4.58755 4.46764 4.47933 4.20638 4.2867 4.01374C4.09407 3.82111 3.8328 3.71289 3.56038 3.71289C3.28795 3.71289 3.02669 3.82111 2.83406 4.01374C2.64142 4.20638 2.5332 4.46764 2.5332 4.74006C2.5332 5.01249 2.64142 5.27375 2.83406 5.46639C3.02669 5.65902 3.28795 5.76724 3.56038 5.76724ZM7.39533 8.91733C7.44029 8.91733 7.4848 8.90847 7.52633 8.89127C7.56786 8.87407 7.6056 8.84885 7.63738 8.81707C7.66917 8.78528 7.69438 8.74754 7.71158 8.70601C7.72879 8.66448 7.73764 8.61997 7.73764 8.57502C7.73764 8.53007 7.72879 8.48556 7.71158 8.44403C7.69438 8.40249 7.66917 8.36476 7.63738 8.33297C7.6056 8.30119 7.56786 8.27597 7.52633 8.25877C7.4848 8.24157 7.44029 8.23271 7.39533 8.23271C7.30455 8.23271 7.21748 8.26878 7.15329 8.33297C7.08909 8.39717 7.05303 8.48423 7.05303 8.57502C7.05303 8.6658 7.08909 8.75287 7.15329 8.81707C7.21748 8.88126 7.30455 8.91733 7.39533 8.91733ZM7.39533 9.60219C7.66776 9.60219 7.92902 9.49397 8.12166 9.30134C8.31429 9.10871 8.42251 8.84744 8.42251 8.57502C8.42251 8.3026 8.31429 8.04133 8.12166 7.8487C7.92902 7.65607 7.66776 7.54785 7.39533 7.54785C7.12291 7.54785 6.86165 7.65607 6.66901 7.8487C6.47638 8.04133 6.36816 8.3026 6.36816 8.57502C6.36816 8.84744 6.47638 9.10871 6.66901 9.30134C6.86165 9.49397 7.12291 9.60219 7.39533 9.60219Z" fill="white"/>
</g>
<defs>
<clipPath id="clip0_17873_30130">
<rect width="10.9565" height="14" fill="white"/>
</clipPath>
</defs>
</svg>
