<svg width="19" height="21" viewBox="0 0 19 21" fill="none" xmlns="http://www.w3.org/2000/svg">
<path d="M6.11133 6.76562H7.3418V16.6094H6.11133V6.76562ZM8.57227 6.76562H9.80273V16.6094H8.57227V6.76562ZM11.0332 6.76562H12.2637V16.6094H11.0332V6.76562ZM1.18945 3.07422H17.1855V4.30469H1.18945V3.07422Z" fill="#999999"/>
<path d="M12.2227 3.6914H11.0742V2.46094C11.0742 2.09179 10.7871 1.80469 10.418 1.80469H7.95703C7.58789 1.80469 7.30078 2.09179 7.30078 2.46094V3.6914H6.15234V2.46094C6.15234 1.47656 6.97265 0.65625 7.95703 0.65625H10.418C11.4023 0.65625 12.2227 1.47656 12.2227 2.46094V3.6914Z" fill="#999999"/>
<path d="M12.8789 20.3047H5.49609C4.51172 20.3047 3.65039 19.4844 3.56836 18.5L2.41992 3.73437L3.65039 3.65234L4.79883 18.418C4.83984 18.7871 5.16797 19.0742 5.49609 19.0742H12.8789C13.248 19.0742 13.5762 18.7461 13.5762 18.418L14.7246 3.65234L15.9551 3.73437L14.8066 18.5C14.7246 19.5254 13.8633 20.3047 12.8789 20.3047Z" fill="#999999"/>
</svg>
