<svg width="20" height="20" viewBox="0 0 20 20" fill="none" xmlns="http://www.w3.org/2000/svg">
<g clip-path="url(#clip0_418_699)">
<path d="M2.91667 20.0013H15.4167C16.1914 19.9991 16.9336 19.6896 17.4805 19.1408C18.0273 18.5919 18.334 17.8486 18.3333 17.0738V10.793C18.3333 10.572 18.2455 10.36 18.0893 10.2037C17.933 10.0474 17.721 9.95964 17.5 9.95964C17.279 9.95964 17.067 10.0474 16.9107 10.2037C16.7545 10.36 16.6667 10.572 16.6667 10.793V17.0738C16.6678 17.4067 16.5368 17.7264 16.3024 17.9627C16.0681 18.1991 15.7495 18.3329 15.4167 18.3346H2.91667C2.58381 18.3329 2.26525 18.1991 2.0309 17.9627C1.79655 17.7264 1.66556 17.4067 1.66667 17.0738V4.59547C1.66556 4.26261 1.79655 3.94291 2.0309 3.70653C2.26525 3.47015 2.58381 3.3364 2.91667 3.33464H9.16667C9.38768 3.33464 9.59964 3.24684 9.75592 3.09056C9.9122 2.93428 10 2.72232 10 2.5013C10 2.28029 9.9122 2.06833 9.75592 1.91205C9.59964 1.75577 9.38768 1.66797 9.16667 1.66797H2.91667C2.14192 1.67018 1.3997 1.97966 0.852882 2.52851C0.306068 3.07735 -0.000664243 3.82072 1.08009e-06 4.59547V17.0738C-0.000664243 17.8486 0.306068 18.5919 0.852882 19.1408C1.3997 19.6896 2.14192 19.9991 2.91667 20.0013Z" fill="#999999"/>
<path d="M7.87972 8.78764L7.22222 11.7993C7.19246 11.9359 7.19755 12.0778 7.23701 12.2119C7.27648 12.3461 7.34906 12.4681 7.44806 12.5668C7.54842 12.663 7.67051 12.7337 7.80397 12.7727C7.93743 12.8117 8.07833 12.818 8.21472 12.791L11.2197 12.1318C11.3758 12.0975 11.5187 12.0192 11.6314 11.906L19.2264 4.31097C19.4586 4.07882 19.6428 3.80321 19.7684 3.49986C19.8941 3.19652 19.9588 2.8714 19.9588 2.54306C19.9588 2.21472 19.8941 1.88959 19.7684 1.58625C19.6428 1.28291 19.4586 1.00729 19.2264 0.775141C18.7504 0.320255 18.1173 0.0664063 17.4589 0.0664062C16.8005 0.0664062 16.1674 0.320255 15.6914 0.775141L8.10806 8.37764C7.99424 8.48961 7.91499 8.63192 7.87972 8.78764ZM16.8697 1.95431C17.0283 1.80243 17.2393 1.71764 17.4589 1.71764C17.6784 1.71764 17.8895 1.80243 18.0481 1.95431C18.2022 2.1115 18.2886 2.32289 18.2886 2.54306C18.2886 2.76323 18.2022 2.97462 18.0481 3.13181L17.4589 3.72097L16.2806 2.54264L16.8697 1.95431ZM9.45306 9.38264L15.0981 3.72347L16.2647 4.89597L10.6172 10.5568L9.12139 10.8851L9.45306 9.38264Z" fill="#999999"/>
</g>
<defs>
<clipPath id="clip0_418_699">
<rect width="20" height="20" fill="white"/>
</clipPath>
</defs>
</svg>
