<!DOCTYPE svg PUBLIC "-//W3C//DTD SVG 1.1//EN" "http://www.w3.org/Graphics/SVG/1.1/DTD/svg11.dtd">
<!-- Uploaded to: SVG Repo, www.svgrepo.com, Transformed by: SVG Repo Mixer Tools -->
<svg height="800px" width="800px" version="1.1" id="Layer_1" xmlns="http://www.w3.org/2000/svg" xmlns:xlink="http://www.w3.org/1999/xlink" viewBox="0 0 512 512" xml:space="preserve" fill="#000000">
<g id="SVGRepo_bgCarrier" stroke-width="0"/>
<g id="SVGRepo_tracerCarrier" stroke-linecap="round" stroke-linejoin="round"/>
<g id="SVGRepo_iconCarrier"> <path style="fill:#EDEDED;" d="M18.853,109.917c-11.582,0-20.425,10.348-18.618,21.788L31.98,332.761 c1.446,9.162,9.343,15.91,18.618,15.91h358.089l21.632-238.754C430.32,109.917,18.853,109.917,18.853,109.917z"/> <polygon style="fill:#D8D8DA;" points="392.623,109.917 370.991,348.671 408.689,348.671 430.321,109.917 "/> <path style="fill:#EDEDED;" d="M493.151,38.291h-56.547l-3.52,37.698h60.067c10.41,0,18.849-8.439,18.849-18.849l0,0 C512,46.73,503.561,38.291,493.151,38.291z"/> <path style="fill:#D8D8DA;" d="M493.151,38.291h-18.849c10.41,0,18.849,8.439,18.849,18.849s-8.439,18.849-18.849,18.849h18.849 c10.41,0,18.849-8.439,18.849-18.849S503.561,38.291,493.151,38.291z"/> <path style="fill:#F8F8F9;" d="M373.774,194.738H47.058c-5.206,0-9.424-4.22-9.424-9.424c0-5.205,4.218-9.424,9.424-9.424h326.716 c5.206,0,9.424,4.22,9.424,9.424C383.199,190.518,378.98,194.738,373.774,194.738z"/> <path style="fill:#D8D8DA;" d="M361.208,282.7H59.624c-5.206,0-9.424-4.22-9.424-9.424c0-5.205,4.218-9.424,9.424-9.424h301.584 c5.206,0,9.424,4.22,9.424,9.424C370.633,278.48,366.414,282.7,361.208,282.7z"/> <path style="fill:#F8F8F9;" d="M160.152,320.398c-5.206,0-9.424-4.22-9.424-9.424V147.615c0-5.205,4.218-9.424,9.424-9.424 s9.424,4.22,9.424,9.424v163.358C169.577,316.178,165.358,320.398,160.152,320.398z"/> <path style="fill:#D8D8DA;" d="M273.246,320.398c-5.206,0-9.424-4.22-9.424-9.424V147.615c0-5.205,4.218-9.424,9.424-9.424 c5.206,0,9.424,4.22,9.424,9.424v163.358C282.671,316.178,278.452,320.398,273.246,320.398z"/> <g> <path style="fill:#88888F;" d="M310.944,458.623H172.718c-5.206,0-9.424-4.22-9.424-9.424c0-5.205,4.218-9.424,9.424-9.424h138.226 c5.206,0,9.424,4.22,9.424,9.424C320.369,454.404,316.15,458.623,310.944,458.623z"/> <path style="fill:#88888F;" d="M376.163,458.623h-14.954c-5.206,0-9.424-4.22-9.424-9.424c0-5.205,4.218-9.424,9.424-9.424h14.954 c8.104,0,14.823-6.081,15.63-14.144l35.429-379.419c0.484-5.182,5.062-8.991,10.26-8.507c5.182,0.484,8.991,5.078,8.508,10.26 l-35.435,379.48C408.773,445.246,393.99,458.623,376.163,458.623z"/> </g> <g> <circle style="fill:#797781;" cx="109.89" cy="449.205" r="25.132"/> <circle style="fill:#797781;" cx="336.077" cy="449.205" r="25.132"/> </g> <g> <path style="fill:#58575D;" d="M109.888,424.067c-3.335,0-6.512,0.663-9.424,1.843c9.207,3.73,15.707,12.743,15.707,23.289 c0,10.544-6.5,19.558-15.707,23.289c2.913,1.18,6.089,1.843,9.424,1.843c13.88,0,25.132-11.252,25.132-25.132 S123.769,424.067,109.888,424.067z"/> <path style="fill:#58575D;" d="M336.076,424.067c-3.335,0-6.512,0.663-9.424,1.843c9.207,3.73,15.707,12.743,15.707,23.289 c0,10.544-6.5,19.558-15.707,23.289c2.913,1.18,6.089,1.843,9.424,1.843c13.88,0,25.132-11.252,25.132-25.132 S349.957,424.067,336.076,424.067z"/> </g> </g>
</svg>