<svg width="18" height="19" viewBox="0 0 18 19" fill="none" xmlns="http://www.w3.org/2000/svg">
<path d="M17.5946 4.15637L14.3436 0.905426C14.0716 0.633421 13.6955 0.485941 13.3108 0.501058C12.9264 0.516105 12.5626 0.692484 12.3126 0.984949L9.00155 4.8597C8.53531 5.40529 8.56762 6.2302 9.0751 6.73768L10.0092 7.67182L6.16996 11.5111L5.21308 10.5542L0 15.7672L2.73277 18.5L7.94577 13.287L6.98892 12.3301L10.8282 8.49082L11.7623 9.42496C12.0298 9.6925 12.3856 9.82796 12.7421 9.82796C13.0619 9.82796 13.3823 9.71897 13.6403 9.49851L17.5151 6.18742C17.8075 5.93749 17.9839 5.57369 17.999 5.18926C18.014 4.80486 17.8666 4.42837 17.5946 4.15637ZM2.73277 16.862L1.63804 15.7672L5.21304 12.1922L6.30777 13.287L2.73277 16.862ZM10.1941 6.21856L9.89413 5.91861C9.81127 5.83582 9.80603 5.7012 9.88211 5.61219L13.1932 1.73744C13.249 1.67208 13.3192 1.65992 13.3561 1.65844C13.3588 1.65833 13.3617 1.6583 13.3648 1.6583C13.4034 1.6583 13.4684 1.66814 13.5246 1.72443L14.0041 2.20392L10.1941 6.21856ZM11.4621 7.48665L11.0133 7.03792L14.8234 3.02324L15.4768 3.67659L11.4621 7.48665ZM16.8415 5.14391C16.8401 5.18079 16.8279 5.25096 16.7626 5.30679L12.8878 8.61788C12.7988 8.69396 12.6642 8.68868 12.5813 8.60585L12.2813 8.3059L16.2961 4.49587L16.7755 4.97537C16.8363 5.03615 16.843 5.10706 16.8415 5.14391Z" fill="#333333"/>
</svg>
