<svg width="42" height="42" viewBox="0 0 42 42" fill="none" xmlns="http://www.w3.org/2000/svg">
<circle cx="21" cy="21" r="21" fill="white"/>
<path d="M39 21C39 30.9411 30.9411 39 21 39C11.0589 39 3 30.9411 3 21C3 11.0589 11.0589 3 21 3C30.9411 3 39 11.0589 39 21ZM8.04 21C8.04 28.1576 13.8424 33.96 21 33.96C28.1576 33.96 33.96 28.1576 33.96 21C33.96 13.8424 28.1576 8.04 21 8.04C13.8424 8.04 8.04 13.8424 8.04 21Z" fill="#E4E4E4"/>
<path d="M39 21C39 30.9411 30.9411 39 21 39C11.0589 39 3 30.9411 3 21C3 11.0589 11.0589 3 21 3C30.9411 3 39 11.0589 39 21ZM8.04 21C8.04 28.1576 13.8424 33.96 21 33.96C28.1576 33.96 33.96 28.1576 33.96 21C33.96 13.8424 28.1576 8.04 21 8.04C13.8424 8.04 8.04 13.8424 8.04 21Z" fill="#222222"/>
</svg>
