<svg width="42" height="42" viewBox="0 0 42 42" fill="none" xmlns="http://www.w3.org/2000/svg">
<circle cx="21" cy="21" r="21" fill="white"/>
<path d="M39 21C39 30.9411 30.9411 39 21 39C11.0589 39 3 30.9411 3 21C3 11.0589 11.0589 3 21 3C30.9411 3 39 11.0589 39 21ZM8.04 21C8.04 28.1576 13.8424 33.96 21 33.96C28.1576 33.96 33.96 28.1576 33.96 21C33.96 13.8424 28.1576 8.04 21 8.04C13.8424 8.04 8.04 13.8424 8.04 21Z" fill="#E4E4E4"/>
<path d="M21 5.52C21 4.12824 22.1337 2.9819 23.5118 3.17611C25.572 3.46645 27.5728 4.11272 29.4227 5.09222C32.0176 6.46615 34.2371 8.45402 35.8875 10.8825C37.5378 13.311 38.5691 16.1063 38.8913 19.0248C39.2135 21.9432 38.8169 24.8962 37.736 27.6262C36.6551 30.3562 34.9228 32.7804 32.6901 34.6873C30.4574 36.5942 27.7921 37.926 24.9266 38.5665C22.0611 39.207 19.0824 39.1368 16.2503 38.362C14.2312 37.8097 12.3303 36.9112 10.6297 35.7125C9.49217 34.9107 9.45049 33.299 10.4032 32.2844C11.3559 31.2699 12.9414 31.2449 14.1209 31.9836C15.19 32.6532 16.3549 33.1654 17.5802 33.5007C19.6193 34.0585 21.764 34.1091 23.8271 33.6479C25.8903 33.1867 27.8093 32.2278 29.4168 30.8549C31.0244 29.4819 32.2717 27.7365 33.0499 25.7709C33.8281 23.8053 34.1137 21.6791 33.8817 19.5778C33.6497 17.4765 32.9072 15.4639 31.719 13.7154C30.5307 11.9669 28.9327 10.5356 27.0644 9.5464C25.9417 8.95195 24.7418 8.52796 23.5042 8.28423C22.1386 8.01531 21 6.91176 21 5.52Z" fill="#222222"/>
</svg>
