<svg width="17" height="15" viewBox="0 0 17 15" fill="none" xmlns="http://www.w3.org/2000/svg">
<path d="M8.50005 7.5H1C1 11.035 5.70152 14.0746 5.70152 14.0746H8.50005" stroke="#333333" stroke-width="0.5" stroke-linecap="round" stroke-linejoin="round"/>
<path d="M3.18359 8.30859C3.18359 10.9141 6.27597 12.8366 6.27597 12.8366" stroke="#333333" stroke-width="0.5" stroke-linecap="round" stroke-linejoin="round"/>
<path d="M8.5 7.5H16.0001C16.0001 11.035 11.2985 14.0746 11.2985 14.0746H8.5" stroke="#333333" stroke-width="0.5" stroke-linecap="round" stroke-linejoin="round"/>
<path d="M4.48427 7.50355C3.93855 5.57053 7.5873 4.24167 10.8615 3.83126L11.1815 3.27344L12.4723 4.75796L11.7639 4.86717C11.4176 5.94457 9.68229 7.50355 9.68229 7.50355" stroke="#333333" stroke-width="0.5" stroke-linecap="round" stroke-linejoin="round"/>
<path d="M5.05859 7.50259C5.17547 6.50731 6.39514 5.38751 11.0474 4.04297" stroke="#333333" stroke-width="0.5" stroke-linecap="round" stroke-linejoin="round"/>
<path d="M11.1665 4.17969C9.40695 5.01378 7.35571 5.97204 5.91797 7.50125" stroke="#333333" stroke-width="0.5" stroke-linecap="round" stroke-linejoin="round"/>
<path d="M11.5103 4.57422C9.68213 6.92409 8.5 7.50164 8.5 7.50164" stroke="#333333" stroke-width="0.5" stroke-linecap="round" stroke-linejoin="round"/>
<path d="M7.48828 7.50292C8.59083 6.89312 11.3355 4.375 11.3355 4.375" stroke="#333333" stroke-width="0.5" stroke-linecap="round" stroke-linejoin="round"/>
<path d="M12.1813 4.42792L15.4859 1.894C15.714 1.71904 15.7491 1.40223 15.5642 1.18638C15.3793 0.970488 15.0444 0.937307 14.8163 1.11227L11.5117 3.64619" stroke="#333333" stroke-width="0.5" stroke-linecap="round" stroke-linejoin="round"/>
</svg>
