<svg width="27" height="29" viewBox="0 0 27 29" fill="none" xmlns="http://www.w3.org/2000/svg">
<path d="M25.7205 8.337L13.9605 1.477C13.8115 1.39099 13.6425 1.3457 13.4705 1.3457C13.2984 1.3457 13.1294 1.39099 12.9805 1.477L1.22047 8.337C1.07235 8.42251 0.949195 8.54529 0.863234 8.69315C0.777272 8.841 0.731501 9.00878 0.730469 9.1798V26.8198C0.730469 27.0797 0.833718 27.329 1.0175 27.5128C1.20129 27.6966 1.45056 27.7998 1.71047 27.7998H10.5305C10.7904 27.7998 11.0396 27.6966 11.2234 27.5128C11.4072 27.329 11.5105 27.0797 11.5105 26.8198V19.9598H15.4305V26.8198C15.4305 27.0797 15.5337 27.329 15.7175 27.5128C15.9013 27.6966 16.1506 27.7998 16.4105 27.7998H25.2305C25.4904 27.7998 25.7396 27.6966 25.9234 27.5128C26.1072 27.329 26.2105 27.0797 26.2105 26.8198V9.1798C26.2094 9.00878 26.1637 8.841 26.0777 8.69315C25.9917 8.54529 25.8686 8.42251 25.7205 8.337ZM24.2505 25.8398H17.3905V18.9798C17.3905 18.7199 17.2872 18.4706 17.1034 18.2868C16.9196 18.1031 16.6704 17.9998 16.4105 17.9998H10.5305C10.2706 17.9998 10.0213 18.1031 9.8375 18.2868C9.65372 18.4706 9.55047 18.7199 9.55047 18.9798V25.8398H2.69047V9.7384L13.4705 3.4566L24.2505 9.7384V25.8398Z" fill="#9A9A9A"/>
</svg>
