<svg width="23" height="21" viewBox="0 0 23 21" fill="none" xmlns="http://www.w3.org/2000/svg">
<path fill-rule="evenodd" clip-rule="evenodd" d="M0.851074 11.4321H5.07568C5.44482 11.4321 5.76099 11.7805 5.87891 12.2667H9.34473L9.21484 11.2591C9.18579 11.0335 9.28662 10.818 9.44043 10.7754C9.45752 10.7704 9.47461 10.7679 9.4917 10.7679H20.7163C20.8718 10.7679 21 10.9533 21 11.1839C21 11.2316 20.9949 11.2767 20.9846 11.3193L20.5249 13.8708C20.3933 14.6052 20.1711 15.2969 19.8379 15.7832C19.5371 16.2243 19.1509 16.5 18.6689 16.5H11.4058C10.9136 16.5 10.5068 16.2168 10.1941 15.7581C9.86084 15.2694 9.64038 14.5826 9.54639 13.8407L9.45068 13.0988H5.87891C5.76099 13.5826 5.44482 13.9335 5.07568 13.9335H0.851074C0.384521 13.9309 0 13.3695 0 12.6828C0 11.996 0.382813 11.4321 0.851074 11.4321ZM17.8572 4.62219C17.9683 4.45927 18.1477 4.45927 18.2571 4.62219C18.3665 4.7851 18.3682 5.04827 18.2571 5.20868C17.9871 5.60469 18.1101 5.94306 18.2537 6.33656C18.4946 6.99825 18.7732 7.75769 18.3015 8.95324C18.2229 9.15125 18.0503 9.21892 17.9153 9.10362C17.7803 8.98833 17.7341 8.73518 17.8127 8.53718C18.1255 7.74014 17.929 7.19876 17.7563 6.72505C17.5068 6.04331 17.2915 5.45431 17.8572 4.62219ZM15.7517 4.62219C15.8628 4.45927 16.0422 4.45927 16.1516 4.62219C16.261 4.7851 16.2627 5.04827 16.1516 5.20868C15.8816 5.60469 16.0046 5.94306 16.1482 6.33656C16.3892 6.99825 16.6677 7.75769 16.196 8.95324C16.1174 9.15125 15.9448 9.21892 15.8098 9.10362C15.6748 8.98833 15.6287 8.73518 15.7073 8.53718C16.02 7.74014 15.8235 7.19876 15.6509 6.72505C15.4014 6.04331 15.186 5.45431 15.7517 4.62219ZM13.6479 4.62219C13.759 4.45927 13.9385 4.45927 14.0479 4.62219C14.1589 4.7851 14.1589 5.04827 14.0479 5.20868C13.7778 5.60469 13.9009 5.94306 14.0444 6.33656C14.2854 6.99825 14.564 7.75769 14.0923 8.95324C14.0137 9.15125 13.8411 9.21892 13.7061 9.10362C13.571 8.98833 13.5249 8.73518 13.6035 8.53718C13.9163 7.74014 13.7197 7.19876 13.5471 6.72505C13.2959 6.04331 13.0806 5.45431 13.6479 4.62219ZM11.5425 4.62219C11.6536 4.45927 11.833 4.45927 11.9424 4.62219C12.0535 4.7851 12.0535 5.04827 11.9424 5.20868C11.6724 5.60469 11.7954 5.94306 11.939 6.33656C12.1799 6.99825 12.4585 7.75769 11.9868 8.95324C11.9082 9.15125 11.7356 9.21892 11.6006 9.10362C11.4656 8.98833 11.4194 8.73518 11.498 8.53718C11.8108 7.74014 11.6143 7.19876 11.4417 6.72505C11.1921 6.04331 10.9768 5.45431 11.5425 4.62219ZM19.9797 13.6577L20.3506 11.5975H9.8335L10.1018 13.6878C10.177 14.2693 10.3445 14.8032 10.5957 15.1716C10.8059 15.4799 11.0793 15.6704 11.4075 15.6704H18.6707C18.9868 15.6704 19.2397 15.4874 19.4397 15.1967C19.696 14.8182 19.8721 14.2618 19.9797 13.6577Z" fill="black"/>
</svg>
