<svg width="22" height="26" viewBox="0 0 22 26" fill="none" xmlns="http://www.w3.org/2000/svg">
<path d="M16.0544 19.8968C16.3475 19.7869 16.5977 19.6459 16.8099 19.4897C15.9517 21.0889 14.3252 23.1868 12.9268 22.3972C12.4996 22.1569 12.2605 21.5289 12.4054 20.9374C12.4288 20.8952 12.4505 20.8517 12.4705 20.8069C12.5074 20.7242 12.5388 20.6377 12.5643 20.5477C12.8556 20.0563 13.4844 19.6691 14.588 19.6829M16.0544 19.8968C16.2054 19.6545 16.3426 19.4132 16.4625 19.1843C16.037 19.4728 15.4338 19.6948 14.588 19.6829M16.0544 19.8968C15.9054 20.1358 15.7429 20.3758 15.5705 20.6056C15.1497 21.1664 14.6925 21.6355 14.2498 21.8982C13.8174 22.1548 13.4633 22.1834 13.148 22.0054L13.1474 22.005C12.9198 21.877 12.7139 21.4347 12.8621 20.9755C12.9849 20.5946 13.4075 20.1182 14.5822 20.1329C14.582 20.1329 14.5818 20.1329 14.5816 20.1329L14.588 19.6829M16.0544 19.8968C15.6498 20.0485 15.1635 20.141 14.5823 20.1329L14.588 19.6829M4.3225 25.1642C4.30818 25.1588 4.2956 25.153 4.28497 25.1473L4.03407 22.0878C4.12104 22.1038 4.21995 22.1158 4.32654 22.1158C4.43575 22.1158 4.53702 22.103 4.62554 22.0865L4.41185 25.1355L4.41075 25.1512V25.167C4.41075 25.1732 4.41061 25.1789 4.41036 25.1839C4.40708 25.1837 4.40358 25.1834 4.39989 25.183C4.37586 25.1804 4.34896 25.1741 4.3225 25.1642ZM7.47919 13.2258C7.43223 13.4725 7.37695 13.7232 7.31286 13.9713C7.12499 14.6986 6.86931 15.3724 6.5477 15.8539C6.2234 16.3394 5.89016 16.5499 5.55208 16.5499C5.36823 16.5499 5.03765 16.3196 5.012 15.8122C4.98949 15.3668 5.24137 14.6806 6.33169 14.0862L6.33251 14.0857C6.80893 13.8247 7.18421 13.5304 7.47919 13.2258ZM7.47943 9.21998C7.43242 9.46706 7.37705 9.71828 7.31286 9.96684C7.12499 10.6943 6.86929 11.3682 6.54767 11.8498C6.22334 12.3355 5.8901 12.546 5.55208 12.546C5.36809 12.546 5.03765 12.316 5.012 11.8086C4.98948 11.3627 5.24162 10.6755 6.33235 10.0785C6.80896 9.81809 7.18438 9.52424 7.47943 9.21998ZM7.47934 5.33457C7.43235 5.58139 7.37702 5.83232 7.31287 6.0806C7.12501 6.80771 6.86933 7.48125 6.54773 7.96255C6.22346 8.44785 5.89023 8.6583 5.55208 8.6583C5.36738 8.6583 5.0376 8.42875 5.012 7.92277C4.98949 7.47776 5.24147 6.79052 6.33221 6.19085C6.80884 5.93153 7.18427 5.63838 7.47934 5.33457ZM1.40001 6.08055C1.33598 5.83284 1.28074 5.58249 1.23383 5.33622C1.52853 5.64014 1.90352 5.93336 2.3796 6.19267C3.47186 6.79158 3.72356 7.47842 3.70107 7.92298C3.67546 8.42913 3.34537 8.6583 3.16242 8.6583C2.82376 8.6583 2.49017 8.44767 2.16567 7.96241C1.84383 7.48112 1.58795 6.80761 1.40001 6.08055ZM1.40002 9.96679C1.33578 9.71815 1.28038 9.46686 1.23337 9.21971C1.52811 9.52408 1.90317 9.81805 2.3794 10.0785L2.37949 10.0786C3.47161 10.6757 3.72359 11.3629 3.70107 11.8086C3.6754 12.3165 3.34462 12.546 3.16242 12.546C2.82388 12.546 2.49029 12.3353 2.16574 11.8497C1.84386 11.3681 1.58797 10.6942 1.40002 9.96679ZM1.23361 13.2238C1.52821 13.5284 1.90303 13.8228 2.37891 14.0839L2.37993 14.0844C3.47176 14.6797 3.72358 15.3664 3.70107 15.8117C3.67539 16.3197 3.34462 16.5484 3.1632 16.5481H3.16242C2.82382 16.5481 2.49023 16.3375 2.16571 15.852C1.84385 15.3706 1.58796 14.6968 1.40002 13.9695C1.33589 13.7214 1.28057 13.4705 1.23361 13.2238ZM1.40002 18.0739C1.33588 17.8257 1.28057 17.5749 1.23361 17.3282C1.52821 17.6328 1.90304 17.9271 2.37891 18.1882L2.37993 18.1888C3.47188 18.7842 3.72357 19.4704 3.70107 19.9154C3.67541 20.4228 3.34471 20.6525 3.16242 20.6525C2.82382 20.6525 2.49023 20.4418 2.16571 19.9564C1.84385 19.4749 1.58796 18.8012 1.40002 18.0739ZM7.47919 17.3284C7.43223 17.5751 7.37695 17.8258 7.31286 18.074C7.12499 18.8013 6.86931 19.475 6.5477 19.9565C6.2234 20.442 5.89016 20.6525 5.55208 20.6525C5.368 20.6525 5.03764 20.4224 5.012 19.9154C4.9895 19.4703 5.24136 18.784 6.33191 18.1887L6.33251 18.1883C6.80893 17.9273 7.18421 17.633 7.47919 17.3284ZM4.37411 1.32888C4.37603 1.32269 4.37796 1.31652 4.37987 1.31037C4.55658 1.84165 4.75224 2.49549 4.89159 3.14495C5.05291 3.89677 5.12634 4.58868 5.04331 5.07153C5.00242 5.30932 4.93088 5.45131 4.85665 5.52985C4.79494 5.59516 4.70012 5.65109 4.51223 5.65109C4.31188 5.65109 4.19454 5.59529 4.11517 5.52519C4.02818 5.44835 3.94667 5.31806 3.88849 5.10824C3.76875 4.67635 3.78512 4.04576 3.89513 3.33446C4.00305 2.63657 4.1921 1.91455 4.37411 1.32888ZM11.7585 22.8253L10.498 25.5021C10.4794 25.4869 10.4606 25.4692 10.4428 25.4495C10.4168 25.421 10.3966 25.3926 10.3829 25.3686C10.3816 25.3664 10.3805 25.3643 10.3794 25.3623L11.1927 22.538C11.2541 22.5849 11.323 22.6322 11.3991 22.675L11.4006 22.6759C11.529 22.7475 11.6541 22.7931 11.7585 22.8253ZM12.1442 20.3752C12.088 20.4786 12.0418 20.5869 12.0055 20.6991C11.9984 20.7212 11.9917 20.7435 11.9854 20.7658C11.6986 21.2419 11.171 21.4047 10.7571 21.1718C9.39484 20.4063 9.6166 17.6719 10.0478 15.8428L12.1442 20.3752ZM10.3102 16.8289C10.4685 17.2405 10.6993 17.6815 11.0274 18.1429L11.0275 18.143C11.8362 19.2793 11.8197 20.0569 11.6487 20.44C11.4711 20.8378 11.1498 20.8765 10.9777 20.7796L10.9775 20.7795C10.6378 20.5886 10.3952 20.1883 10.267 19.5698C10.1402 18.9582 10.143 18.2106 10.2249 17.4559C10.2479 17.2443 10.2768 17.0342 10.3102 16.8289ZM17.4801 16.1768C17.3312 16.4158 17.1688 16.6557 16.9964 16.8856C16.5758 17.4461 16.1186 17.9152 15.6757 18.1782C15.2435 18.4349 14.8891 18.4643 14.5737 18.2876C14.3434 18.1563 14.1388 17.7119 14.2864 17.2541C14.409 16.8737 14.8311 16.3978 16.0061 16.4133C16.5882 16.4215 17.0752 16.3287 17.4801 16.1768ZM11.6497 13.7342C11.6726 13.5233 11.7014 13.3139 11.7346 13.1092C11.8925 13.5207 12.1226 13.9616 12.4497 14.4228L12.4504 14.4238C13.2602 15.5589 13.2434 16.3368 13.072 16.7206C12.8935 17.1205 12.5717 17.1577 12.4024 17.0621L12.4022 17.062C12.0625 16.8704 11.8199 16.4691 11.6917 15.8498C11.565 15.2375 11.5679 14.4893 11.6497 13.7342ZM13.0397 10.1027C13.0628 9.89057 13.0919 9.67998 13.1254 9.47417C13.2833 9.88543 13.5136 10.3259 13.8411 10.7867C14.6506 11.9264 14.634 12.706 14.4625 13.0904C14.2844 13.4895 13.9629 13.528 13.7919 13.4325C13.4517 13.2399 13.2092 12.8379 13.0812 12.2187C12.9545 11.6061 12.9576 10.8578 13.0397 10.1027ZM20.218 9.02216C20.0694 9.26084 19.9073 9.50042 19.7352 9.72986C19.3148 10.2904 18.8579 10.7591 18.4155 11.0214C17.9834 11.2775 17.6292 11.306 17.3133 11.1275L17.312 11.1268C17.0849 10.9995 16.8786 10.5578 17.0265 10.0989C17.1491 9.71847 17.571 9.24215 18.7453 9.25667C19.3268 9.26604 19.8133 9.1739 20.218 9.02216ZM18.8688 12.5456C18.7201 12.7841 18.5581 13.0236 18.3861 13.253C17.9655 13.8139 17.5083 14.2833 17.0655 14.5463C16.633 14.8033 16.2786 14.8322 15.9629 14.6544L15.9619 14.6538C15.7346 14.5266 15.5281 14.0845 15.6763 13.6246C15.7992 13.2434 16.222 12.7666 17.3974 12.7821C17.9783 12.7899 18.4644 12.6972 18.8688 12.5456ZM14.3892 6.578C14.4119 6.36829 14.4406 6.16007 14.4736 5.95648C14.6319 6.36749 14.8629 6.80739 15.1914 7.26703C15.9998 8.40486 15.983 9.18239 15.812 9.56552C15.6344 9.96343 15.3133 10.002 15.1428 9.90683C14.8023 9.71405 14.5596 9.31212 14.4313 8.69329C14.3044 8.08091 14.3072 7.33286 14.3892 6.578ZM18.7235 3.81165C18.7238 3.8113 18.7241 3.81094 18.7244 3.81059C18.702 4.40269 18.6526 5.14233 18.5472 5.84473C18.4319 6.61272 18.2583 7.27155 18.0216 7.65692C17.9055 7.84579 17.8058 7.91697 17.7408 7.93986C17.6929 7.95672 17.5974 7.97169 17.4117 7.86714C17.2196 7.75872 17.1132 7.6323 17.0529 7.50028C16.9902 7.36314 16.9633 7.18853 16.9835 6.96852C17.0249 6.51578 17.2573 5.95757 17.6005 5.37489C17.9381 4.80179 18.3573 4.24744 18.7235 3.81165Z" stroke="#333333" stroke-width="0.9"/>
</svg>
