<svg width="11" height="13" viewBox="0 0 11 13" fill="none" xmlns="http://www.w3.org/2000/svg">
<path d="M5.22719 7.95829C6.73608 7.95829 7.95927 6.7351 7.95927 5.22622C7.95927 3.71733 6.73608 2.49414 5.22719 2.49414C3.71831 2.49414 2.49512 3.71733 2.49512 5.22622C2.49512 6.7351 3.71831 7.95829 5.22719 7.95829Z" fill="#777777"/>
<path d="M10.3312 4.1142C10.1211 3.16808 9.65586 2.29756 8.98604 1.5971C8.00157 0.567191 6.66646 0 5.22646 0C3.48763 0 1.92466 0.818673 0.938298 2.24609C-0.0432908 3.66665 -0.270167 5.46466 0.330741 7.05398C0.489739 7.48304 0.743298 7.90067 1.08263 8.29367L5.00044 12.8956C5.0283 12.9283 5.06294 12.9546 5.10196 12.9726C5.14098 12.9907 5.18345 13 5.22643 13C5.26941 13 5.31187 12.9907 5.35089 12.9726C5.38991 12.9546 5.42455 12.9283 5.45241 12.8956L9.36983 8.2942C9.72419 7.88372 9.97041 7.47776 10.1225 7.05324C10.4772 6.11488 10.5497 5.09327 10.3312 4.1142ZM9.56623 6.84586C9.5656 6.84758 9.56495 6.84928 9.56436 6.851C9.43557 7.21146 9.23075 7.54709 8.91967 7.90723L8.91827 7.90883L5.22646 12.2453L1.53324 7.90726C1.23896 7.56653 1.02167 7.21004 0.886683 6.84589C0.35404 5.43711 0.555896 3.84361 1.42666 2.58359C2.30054 1.31891 3.68551 0.593607 5.22646 0.593607C6.50271 0.593607 7.68559 1.09568 8.55695 2.00728C9.15186 2.62939 9.56506 3.40252 9.75173 4.24281C9.94526 5.11 9.88078 6.01488 9.56623 6.84586Z" fill="#777777"/>
</svg>
