<svg width="19" height="14" viewBox="0 0 19 14" fill="none" xmlns="http://www.w3.org/2000/svg">
<path d="M17.4333 11.072H16.8667V9.55417C16.8667 6.007 13.7194 3.12362 9.78333 2.98955V2.94098C10.2712 2.82815 10.6333 2.43605 10.6333 1.96501C10.6333 1.40594 10.1262 0.953125 9.5 0.953125C8.87383 0.953125 8.36667 1.40594 8.36667 1.96501C8.36667 2.43605 8.72877 2.82815 9.21667 2.94098V2.98955C5.2806 3.12362 2.13333 6.007 2.13333 9.55417V11.072H1.56667C1.25387 11.072 1 11.2987 1 11.5779C1 12.4163 1.76103 13.0958 2.7 13.0958H16.3C17.239 13.0958 18 12.4163 18 11.5779C18 11.2987 17.7461 11.072 17.4333 11.072ZM8.93333 1.96501C8.93333 1.68624 9.18777 1.45907 9.5 1.45907C9.81223 1.45907 10.0667 1.68624 10.0667 1.96501C10.0667 2.24379 9.81223 2.47096 9.5 2.47096C9.18777 2.47096 8.93333 2.24379 8.93333 1.96501ZM2.7 9.55417C2.7 6.20634 5.75037 3.48284 9.5 3.48284C13.2496 3.48284 16.3 6.20634 16.3 9.55417V11.072H2.7V9.55417ZM16.3 12.5898H2.7C2.07497 12.5898 1.56667 12.136 1.56667 11.5779H17.4333C17.4333 12.136 16.925 12.5898 16.3 12.5898ZM6.1 5.50662C5.47383 5.50662 4.96667 5.95944 4.96667 6.51851C4.96667 7.07757 5.47383 7.53039 6.1 7.53039C6.72617 7.53039 7.23333 7.07757 7.23333 6.51851C7.23333 5.95944 6.72617 5.50662 6.1 5.50662ZM6.1 7.02445C5.78777 7.02445 5.53333 6.79728 5.53333 6.51851C5.53333 6.23973 5.78777 6.01256 6.1 6.01256C6.41223 6.01256 6.66667 6.23973 6.66667 6.51851C6.66667 6.79728 6.41223 7.02445 6.1 7.02445Z" fill="#333333" stroke="#333333" stroke-width="0.5"/>
</svg>
