<svg width="20" height="11" viewBox="0 0 20 11" fill="none" xmlns="http://www.w3.org/2000/svg">
<path d="M3.26728 6.41797C3.00318 6.41797 2.78711 6.59555 2.78711 6.81259C2.78711 7.02963 3.00318 7.20721 3.26728 7.20721H5.11192C5.37601 7.20721 5.59209 7.02963 5.59209 6.81259C5.59209 6.59555 5.37601 6.41797 5.11192 6.41797H3.26728Z" fill="black"/>
<path d="M11.3552 7.20721H13.1998C13.4639 7.20721 13.68 7.02963 13.68 6.81259C13.68 6.59555 13.4639 6.41797 13.1998 6.41797H11.3552C11.0911 6.41797 10.875 6.59555 10.875 6.81259C10.875 7.02963 11.0911 7.20721 11.3552 7.20721Z" fill="black"/>
<path d="M18.3424 0H4.37753C3.66128 0 3.07707 0.48012 3.07707 1.06876V2.61764H0.960335C0.432151 2.61764 0 2.9728 0 3.40688V10.2108C0 10.6448 0.432151 11 0.960335 11H15.6054C16.1336 11 16.5658 10.6448 16.5658 10.2108V8.38236H18.3424C19.0587 8.38236 19.6429 7.90224 19.6429 7.3136V1.06547C19.6389 0.476831 19.0587 0 18.3424 0ZM12.9165 3.40688C13.0245 4.59073 14.1689 5.53782 15.6054 5.63976V8.0009C14.1649 8.08969 13.0125 9.03019 12.8885 10.2108H3.64927C3.54124 9.02691 2.39684 8.07982 0.960335 7.97788V5.61674C2.40084 5.52795 3.55324 4.58744 3.67728 3.40688H12.9165ZM13.8768 3.40688H15.6014V4.84724C14.6971 4.74858 13.9809 4.15336 13.8768 3.40688ZM2.70895 3.40688C2.59291 4.15007 1.86865 4.742 0.956334 4.82422V3.40688H2.70895ZM0.960335 8.7704C1.86465 8.86577 2.5849 9.46099 2.68494 10.2108H0.960335V8.7704ZM13.8528 10.2075C13.9689 9.46428 14.6931 8.87235 15.6054 8.79013V10.2075H13.8528ZM18.6785 7.3136C18.6785 7.46816 18.5265 7.59312 18.3384 7.59312H16.5618V3.40688C16.5618 2.9728 16.1296 2.61764 15.6014 2.61764H4.03341V1.06876C4.03341 0.9142 4.18546 0.789238 4.37353 0.789238H18.3384C18.5265 0.789238 18.6785 0.9142 18.6785 1.06876V7.3136Z" fill="black"/>
<path d="M7.86876 7.19216H8.68905C8.92113 7.19216 9.1092 7.34672 9.1092 7.53745C9.1092 7.72819 8.92113 7.88275 8.68905 7.88275H7.21654C6.95244 7.88275 6.73637 8.06032 6.73637 8.27736C6.73637 8.49441 6.95244 8.67198 7.21654 8.67198H7.80074V8.99097C7.80074 9.20801 8.01682 9.38559 8.28091 9.38559C8.545 9.38559 8.76108 9.20801 8.76108 8.99097V8.67198C9.48933 8.64239 10.0695 8.14583 10.0695 7.54074C10.0695 6.91593 9.44932 6.40621 8.68905 6.40621H7.86876C7.63668 6.40621 7.44862 6.25166 7.44862 6.06092C7.44862 5.87019 7.63668 5.71563 7.86876 5.71563H9.31327C9.57736 5.71563 9.79344 5.53805 9.79344 5.32101C9.79344 5.10397 9.57736 4.92639 9.31327 4.92639H8.75707V4.61728C8.75707 4.40023 8.541 4.22266 8.27691 4.22266C8.01281 4.22266 7.79674 4.40023 7.79674 4.61728V4.92968C7.06848 4.95928 6.48828 5.45584 6.48828 6.06092C6.49228 6.68245 7.1085 7.19216 7.86876 7.19216Z" fill="black"/>
</svg>
