<svg width="16" height="16" viewBox="0 0 16 16" fill="none" xmlns="http://www.w3.org/2000/svg">
<path d="M10.1538 1.91094H10.1038V1.96094V2.83016V2.88016H10.1538H12.3077C12.727 2.88016 13.1198 3.02833 13.4071 3.26021C13.6946 3.4923 13.8731 3.80504 13.8731 4.13399V12.8262C13.8731 13.1551 13.6946 13.4679 13.4071 13.7C13.1198 13.9319 12.727 14.08 12.3077 14.08H3.69231C3.27302 14.08 2.88024 13.9319 2.59294 13.7C2.3054 13.4679 2.12692 13.1551 2.12692 12.8262V4.13399C2.12692 3.80504 2.3054 3.4923 2.59294 3.26021C2.88024 3.02833 3.27302 2.88016 3.69231 2.88016H5.84615H5.89615V2.83016V1.96094V1.91094H5.84615H3.69231C2.16754 1.91094 0.95 2.87999 0.95 4.13399V12.8262C0.95 14.0802 2.16754 15.0492 3.69231 15.0492H12.3077C13.8325 15.0492 15.05 14.0802 15.05 12.8262V4.13399C15.05 2.87999 13.8325 1.91094 12.3077 1.91094H10.1538Z" fill="#333333" stroke="#333333" stroke-width="0.1"/>
<path d="M6.49153 4.6138H9.39922C10.1701 4.6138 10.7415 4.16628 10.7415 3.52074V2.04307C10.7415 1.71968 10.5696 1.44538 10.318 1.2536C10.0667 1.06203 9.73287 0.95 9.39922 0.95H6.49153C5.71772 0.95 5.14922 1.48684 5.14922 2.04307V3.52074C5.14922 3.84412 5.32117 4.11843 5.57275 4.31021C5.82406 4.50178 6.15787 4.6138 6.49153 4.6138ZM6.43383 2.12999C6.43383 2.10695 6.44905 2.07641 6.48255 2.04938C6.51521 2.02301 6.55822 2.00614 6.59922 2.00614H9.50691C9.54791 2.00614 9.59092 2.02301 9.62358 2.04938C9.65708 2.07641 9.6723 2.10695 9.6723 2.12999V3.60766C9.6723 3.6307 9.65708 3.66124 9.62358 3.68827C9.59092 3.71464 9.54791 3.73151 9.50691 3.73151H6.59922C6.55822 3.73151 6.51521 3.71464 6.48255 3.68827C6.44905 3.66124 6.43383 3.6307 6.43383 3.60766V2.12999Z" fill="#333333" stroke="#333333" stroke-width="0.1"/>
<path d="M4.76893 12.4348H11.2305C11.4006 12.4348 11.5471 12.3891 11.6523 12.3042C11.7583 12.2186 11.8189 12.0956 11.8189 11.9502C11.8189 11.8048 11.7583 11.6818 11.6523 11.5962C11.5471 11.5114 11.4006 11.4656 11.2305 11.4656H4.76893C4.59884 11.4656 4.45227 11.5114 4.34714 11.5962C4.24108 11.6818 4.18047 11.8048 4.18047 11.9502C4.18047 12.0956 4.24108 12.2186 4.34714 12.3042C4.45227 12.3891 4.59884 12.4348 4.76893 12.4348Z" fill="#333333" stroke="#333333" stroke-width="0.1"/>
<path d="M4.76893 9.82547H11.2305C11.4006 9.82547 11.5471 9.77971 11.6523 9.69486C11.7583 9.60926 11.8189 9.48627 11.8189 9.34086C11.8189 9.19545 11.7583 9.07246 11.6523 8.98686C11.5471 8.90201 11.4006 8.85625 11.2305 8.85625H4.76893C4.59884 8.85625 4.45227 8.90201 4.34714 8.98686C4.24108 9.07246 4.18047 9.19545 4.18047 9.34086C4.18047 9.48627 4.24108 9.60926 4.34714 9.69486C4.45227 9.77971 4.59884 9.82547 4.76893 9.82547Z" fill="#333333" stroke="#333333" stroke-width="0.1"/>
<path d="M4.76893 7.2161H11.2305C11.4006 7.2161 11.5471 7.17034 11.6523 7.08549C11.7583 6.99988 11.8189 6.87689 11.8189 6.73149C11.8189 6.58608 11.7583 6.46309 11.6523 6.37749C11.5471 6.29263 11.4006 6.24687 11.2305 6.24687H4.76893C4.59884 6.24687 4.45227 6.29263 4.34714 6.37749C4.24108 6.46309 4.18047 6.58608 4.18047 6.73149C4.18047 6.87689 4.24108 6.99988 4.34714 7.08549C4.45227 7.17034 4.59884 7.2161 4.76893 7.2161Z" fill="#333333" stroke="#333333" stroke-width="0.1"/>
</svg>
