<svg width="14" height="15" viewBox="0 0 14 15" fill="none" xmlns="http://www.w3.org/2000/svg">
<path d="M13.5624 0.730469H0.437497C0.204165 0.730469 0 0.934729 0 1.16817V2.62717C0 2.86061 0.204165 3.06487 0.437497 3.06487H13.5624C13.7958 3.06487 13.9999 2.86061 13.9999 2.62717V1.16817C13.9999 0.934729 13.7958 0.730469 13.5624 0.730469Z" fill="#333333"/>
<path d="M13.5637 4.23438H3.35547C3.12213 4.23438 2.91797 4.43864 2.91797 4.67208V5.54748C2.91797 5.78092 3.12213 5.98518 3.35547 5.98518H13.5637C13.7971 5.98518 14.0012 5.78092 14.0012 5.54748V4.67208C14.0012 4.43864 13.7971 4.23438 13.5637 4.23438Z" fill="#333333"/>
<path d="M13.5637 10.0625H3.35547C3.12213 10.0625 2.91797 10.2668 2.91797 10.5002V11.3756C2.91797 11.609 3.12213 11.8133 3.35547 11.8133H13.5637C13.7971 11.8133 14.0012 11.609 14.0012 11.3756V10.5002C14.0012 10.2668 13.7971 10.0625 13.5637 10.0625Z" fill="#333333"/>
<path d="M13.5624 12.9805H2.18749C1.95416 12.9805 1.74999 12.7762 1.74999 12.5428V10.5002C1.74999 10.2668 1.54582 10.0625 1.31249 10.0625H0.437497C0.204165 10.0625 0 10.2668 0 10.5002V14.2936C0 14.527 0.204165 14.7313 0.437497 14.7313H1.31249H1.74999H13.5624C13.7958 14.7313 13.9999 14.527 13.9999 14.2936V13.4182C13.9999 13.1848 13.7958 12.9805 13.5624 12.9805Z" fill="#333333"/>
<path d="M13.5624 7.15238H2.18749C1.95416 7.15238 1.74999 6.94812 1.74999 6.71468V4.67208C1.74999 4.43864 1.54582 4.23438 1.31249 4.23438H0.437497C0.204165 4.23438 0 4.43864 0 4.67208V8.46548C0 8.69892 0.204165 8.90318 0.437497 8.90318H1.02083H1.74999H13.5624C13.7958 8.90318 13.9999 8.69892 13.9999 8.46548V7.59008C13.9999 7.35664 13.7958 7.15238 13.5624 7.15238Z" fill="#333333"/>
</svg>
