<svg width="27" height="34" viewBox="0 0 27 34" fill="none" xmlns="http://www.w3.org/2000/svg">
<g filter="url(#filter0_d_1057_6729)">
<path d="M26.8906 0.488281L26.8204 29.8412C26.8152 32.0503 25.02 33.8369 22.8109 33.8316L0.937432 33.7793L1.01717 0.426423L26.8906 0.488281Z" fill="#A71600"/>
</g>
<path d="M5.34442 8.98703C5.33577 8.64079 5.39474 8.30995 5.52135 7.99451C5.64795 7.67908 5.82233 7.40576 6.04449 7.17455C6.26665 6.94335 6.53553 6.7577 6.85114 6.61761C7.16898 6.47519 7.50557 6.39954 7.86093 6.39066C8.21401 6.38184 8.55168 6.44065 8.87395 6.56708C9.19616 6.69123 9.47398 6.86322 9.70741 7.08305C9.94311 7.30281 10.1321 7.56706 10.2743 7.87578C10.4165 8.1845 10.4919 8.51198 10.5005 8.85823C10.5092 9.20675 10.4503 9.53987 10.3238 9.85758C10.1972 10.173 10.0216 10.4464 9.79721 10.6776C9.57505 10.9088 9.30616 11.0945 8.99055 11.2346C8.67722 11.3746 8.34288 11.4491 7.98752 11.4579C7.63216 11.4668 7.29224 11.4092 6.96775 11.2851C6.64553 11.1609 6.36772 10.989 6.13429 10.7691C5.90086 10.5493 5.71305 10.285 5.57086 9.97632C5.4286 9.66532 5.35313 9.33556 5.34442 8.98703ZM6.08589 8.96851C6.09232 9.22592 6.14627 9.4696 6.24775 9.69956C6.35145 9.92719 6.48735 10.121 6.65546 10.2809C6.82357 10.4408 7.0216 10.5669 7.24957 10.6592C7.47975 10.7492 7.72013 10.7911 7.9707 10.7848C8.30556 10.7764 8.61106 10.6879 8.8872 10.5192C9.16557 10.3481 9.38206 10.1182 9.53668 9.82938C9.69353 9.53826 9.76765 9.22072 9.75906 8.87675C9.75052 8.53506 9.66069 8.22389 9.48957 7.94325C9.32066 7.66027 9.09293 7.4403 8.80637 7.28335C8.52209 7.12633 8.21252 7.05201 7.87766 7.06038C7.62709 7.06664 7.38913 7.12159 7.16378 7.22523C6.93838 7.32659 6.74575 7.46247 6.58589 7.63285C6.42825 7.80091 6.30336 8.00233 6.21121 8.23713C6.12129 8.46959 6.07951 8.71338 6.08589 8.96851ZM10.9823 8.84619C10.9737 8.49994 11.0326 8.1691 11.1592 7.85367C11.2858 7.53823 11.4602 7.26491 11.6824 7.03371C11.9045 6.8025 12.1734 6.61686 12.489 6.47677C12.8069 6.33435 13.1435 6.2587 13.4988 6.24982C13.8519 6.241 14.1896 6.2998 14.5118 6.42623C14.8341 6.55039 15.1119 6.72238 15.3453 6.9422C15.581 7.16197 15.77 7.42621 15.9121 7.73493C16.0543 8.04365 16.1298 8.37114 16.1384 8.71738C16.1471 9.06591 16.0882 9.39902 15.9617 9.71674C15.8351 10.0322 15.6595 10.3055 15.4351 10.5368C15.2129 10.768 14.9441 10.9536 14.6284 11.0937C14.3151 11.2338 13.9808 11.3082 13.6254 11.3171C13.27 11.326 12.9301 11.2684 12.6056 11.1443C12.2834 11.0201 12.0056 10.8481 11.7722 10.6283C11.5388 10.4085 11.3509 10.1442 11.2087 9.83547C11.0665 9.52448 10.991 9.19471 10.9823 8.84619ZM11.7238 8.82767C11.7302 9.08507 11.7842 9.32876 11.8856 9.55872C11.9893 9.78634 12.1252 9.98011 12.2933 10.14C12.4615 10.2999 12.6595 10.4261 12.8875 10.5184C13.1176 10.6084 13.358 10.6502 13.6086 10.644C13.9434 10.6356 14.2489 10.547 14.5251 10.3783C14.8035 10.2072 15.02 9.97732 15.1746 9.68853C15.3314 9.39742 15.4055 9.07987 15.3969 8.73591C15.3884 8.39422 15.2986 8.08305 15.1275 7.8024C14.9586 7.51942 14.7308 7.29946 14.4443 7.1425C14.16 6.98549 13.8504 6.91117 13.5155 6.91953C13.265 6.92579 13.027 6.98074 12.8017 7.08438C12.5763 7.18575 12.3836 7.32162 12.2238 7.49201C12.0661 7.66006 11.9413 7.86149 11.8491 8.09628C11.7592 8.32874 11.7174 8.57254 11.7238 8.82767ZM16.6645 9.65815L17.3786 9.64031C17.4317 9.93758 17.5616 10.1668 17.7685 10.3281C17.9753 10.487 18.2405 10.5624 18.564 10.5544C18.8601 10.547 19.0896 10.4751 19.2526 10.3388C19.4156 10.2026 19.4944 10.024 19.4888 9.80299C19.48 9.44764 19.229 9.20887 18.7359 9.08671L17.9171 8.88493C17.0914 8.6799 16.6703 8.24708 16.6538 7.58648C16.6433 7.16734 16.7852 6.82417 17.0794 6.55698C17.3759 6.28972 17.7564 6.15029 18.2211 6.13868C18.7041 6.12662 19.1108 6.25778 19.4413 6.53216C19.7718 6.80655 19.9725 7.17535 20.0434 7.63857L19.3292 7.65641C19.2672 7.36392 19.142 7.14025 18.9535 6.98541C18.7672 6.82823 18.526 6.75333 18.2299 6.76073C17.977 6.76705 17.7702 6.83832 17.6095 6.97453C17.4511 7.11069 17.3746 7.28925 17.3801 7.51021C17.3887 7.85418 17.6304 8.08634 18.1053 8.20668L18.9344 8.41162C19.3679 8.5216 19.6876 8.68114 19.8934 8.89026C20.0992 9.0971 20.2063 9.37251 20.2149 9.71647C20.2253 10.1311 20.08 10.4754 19.7792 10.7497C19.4805 11.0215 19.0806 11.1637 18.5795 11.1762C18.0624 11.1891 17.6271 11.0564 17.2737 10.7781C16.9225 10.4973 16.7195 10.124 16.6645 9.65815Z" fill="white"/>
<path d="M19.5325 17.4797L13.5746 14.1202C13.5029 14.0797 13.4151 14.0797 13.3433 14.1202L7.38543 17.4797C7.3114 17.5215 7.26562 17.5999 7.26562 17.6848V24.4038C7.26562 24.4888 7.3114 24.5672 7.38543 24.6089L11.2027 26.7614C11.2044 26.7624 11.206 26.7634 11.2077 26.7642L13.3433 27.9685C13.3792 27.9887 13.4191 27.9989 13.459 27.9989C13.4989 27.9989 13.5388 27.9888 13.5747 27.9685L19.5326 24.609C19.6066 24.5672 19.6524 24.4888 19.6524 24.4039V17.6848C19.6524 17.5998 19.6066 17.5214 19.5325 17.4797ZM16.7979 16.4783L15.2302 17.3623L15.2361 16.8223C15.2367 16.7594 15.2122 16.6989 15.168 16.6542C15.1238 16.6095 15.0635 16.5843 15.0006 16.5843H13.8823L15.4339 15.7092L16.7979 16.4783ZM11.0828 26.1532L9.71046 25.3794V24.8127C9.71046 24.6826 9.60503 24.5772 9.47498 24.5772C9.34494 24.5772 9.23951 24.6826 9.23951 24.8127V25.1138L7.73649 24.2663V18.0879L9.23951 18.9354V24.0278C9.23951 24.1578 9.34494 24.2633 9.47498 24.2633C9.60503 24.2633 9.71046 24.1578 9.71046 24.0278V19.201L11.0828 19.9748V26.1532ZM9.95425 18.7978L11.5341 17.907L11.5283 18.447C11.5276 18.5099 11.5521 18.5704 11.5963 18.6151C11.6406 18.6598 11.7008 18.685 11.7637 18.685H12.8821L11.3182 19.5669L9.95425 18.7978ZM13.2235 27.3603L11.5537 26.4187V20.2403L13.2235 21.1819V27.3603ZM19.1814 24.2663L13.6944 27.3603V21.1819L16.7454 19.4615C16.8587 19.3976 16.8987 19.254 16.8349 19.1408C16.771 19.0275 16.6274 18.9874 16.5141 19.0513L13.459 20.774L11.7975 19.8372L13.8868 18.659C13.9015 18.6514 13.9154 18.6423 13.9281 18.6319C13.981 18.5887 14.0147 18.523 14.0147 18.4494C14.0147 18.3194 13.9093 18.214 13.7792 18.214H12.0017L12.0093 17.5126C12.0116 17.466 12 17.4182 11.9733 17.3758C11.9063 17.2696 11.7678 17.2345 11.6584 17.2962L9.47482 18.5274L7.98044 17.6848L13.459 14.5956L14.9546 15.4389L12.8779 16.61C12.8017 16.649 12.7496 16.7283 12.7496 16.8198C12.7496 16.9498 12.855 17.0552 12.9851 17.0552H14.7626L14.7549 17.7575C14.7528 17.8052 14.7651 17.8538 14.793 17.8966C14.838 17.9655 14.9133 18.0034 14.9904 18.0034C15.0296 18.0034 15.0694 17.9935 15.1059 17.973L17.2773 16.7487L18.9375 17.6848L17.4662 18.5144C17.3529 18.5783 17.3129 18.7219 17.3767 18.8352C17.4406 18.9485 17.5842 18.9885 17.6975 18.9247L19.1814 18.0879V24.2663Z" fill="white"/>
<path d="M16.467 21.6209L15.8251 21.1749C15.7706 21.137 15.7027 21.124 15.638 21.1388C15.5733 21.1537 15.518 21.1951 15.4855 21.253L14.8232 22.4323C14.7595 22.5456 14.7998 22.6892 14.9131 22.7529C14.9496 22.7734 14.9892 22.7831 15.0283 22.7831C15.1106 22.7831 15.1906 22.7398 15.2338 22.6629L15.4553 22.2684V25.2028C15.4553 25.3328 15.5607 25.4383 15.6908 25.4383C15.8209 25.4383 15.9263 25.3328 15.9263 25.2028V21.8186L16.1983 22.0076C16.3051 22.0819 16.4518 22.0554 16.526 21.9486C16.6001 21.8418 16.5737 21.6951 16.467 21.6209Z" fill="white"/>
<path d="M18.0847 22.9236C17.9712 22.8599 17.8277 22.9003 17.7641 23.0136L17.5425 23.4081V20.4738C17.5425 20.3437 17.4371 20.2383 17.307 20.2383C17.1769 20.2383 17.0715 20.3437 17.0715 20.4738V23.8579L16.7995 23.6689C16.6926 23.5946 16.546 23.6211 16.4718 23.7279C16.3976 23.8347 16.424 23.9814 16.5308 24.0556L17.1726 24.5016C17.2124 24.5293 17.2594 24.5437 17.307 24.5437C17.3246 24.5437 17.3423 24.5418 17.3597 24.5378C17.4244 24.5229 17.4798 24.4815 17.5123 24.4236L18.1746 23.2443C18.2384 23.1309 18.1981 22.9873 18.0847 22.9236Z" fill="white"/>
<circle cx="19.0835" cy="17.0444" r="2.95457" fill="#C51212"/>
<circle cx="19.0578" cy="17.0226" r="2.26089" fill="white"/>
<path fill-rule="evenodd" clip-rule="evenodd" d="M19.6161 17.0179L20.175 16.4596C20.3292 16.3057 20.3292 16.0552 20.175 15.9013C20.0206 15.7464 19.7704 15.7464 19.6161 15.9013L19.0574 16.4596L18.4986 15.9013C18.3444 15.7464 18.0943 15.7464 17.9399 15.9013C17.7857 16.0552 17.7857 16.3057 17.9399 16.4596L18.4986 17.0179L17.9399 17.5771C17.7857 17.731 17.7857 17.9816 17.9399 18.1354C18.0943 18.2903 18.3444 18.2903 18.4986 18.1354L19.0574 17.5771L19.6161 18.1354C19.7704 18.2903 20.0206 18.2903 20.175 18.1354C20.3292 17.9816 20.3292 17.731 20.175 17.5771L19.6161 17.0179Z" fill="#C51212"/>
<defs>
<filter id="filter0_d_1057_6729" x="0.9375" y="0.425781" width="25.9531" height="33.4062" filterUnits="userSpaceOnUse" color-interpolation-filters="sRGB">
<feFlood flood-opacity="0" result="BackgroundImageFix"/>
<feColorMatrix in="SourceAlpha" type="matrix" values="0 0 0 0 0 0 0 0 0 0 0 0 0 0 0 0 0 0 127 0" result="hardAlpha"/>
<feOffset/>
<feComposite in2="hardAlpha" operator="out"/>
<feColorMatrix type="matrix" values="0 0 0 0 0 0 0 0 0 0 0 0 0 0 0 0 0 0 0.25 0"/>
<feBlend mode="normal" in2="BackgroundImageFix" result="effect1_dropShadow_1057_6729"/>
<feBlend mode="normal" in="SourceGraphic" in2="effect1_dropShadow_1057_6729" result="shape"/>
</filter>
</defs>
</svg>
