<svg width="12" height="11" viewBox="0 0 12 11" fill="none" xmlns="http://www.w3.org/2000/svg">
<path d="M2.35733 0L2.00413 2.47775e-05H1.39421C0.62545 2.47775e-05 0 0.667996 0 1.48908V5.74735H0.706391V1.48908C0.706391 1.08402 1.01495 0.754468 1.39421 0.754468H2.00413V8.56525C2.00413 9.50778 2.72206 10.2745 3.60454 10.2745H9.31463C10.1971 10.2745 10.915 9.50776 10.915 8.56525V1.8696L11.8846 0H2.35733ZM10.2087 1.67464V8.56525C10.2087 9.09179 9.80763 9.52011 9.31468 9.52011H3.60456C3.11158 9.52011 2.71055 9.09177 2.71055 8.56525V0.754468H10.6858L10.2087 1.67464Z" fill="#333333"/>
<path d="M5.7526 1.50781H3.29883V2.26226H5.7526V1.50781Z" fill="#333333"/>
<path d="M5.05798 2.76953H3.29883V3.52397H5.05798V2.76953Z" fill="#333333"/>
<path d="M5.7526 4.02344H3.29883V4.77788H5.7526V4.02344Z" fill="#333333"/>
<path d="M5.05798 5.28125H3.29883V6.03569H5.05798V5.28125Z" fill="#333333"/>
<path d="M5.7526 6.53516H3.29883V7.2896H5.7526V6.53516Z" fill="#333333"/>
</svg>
