<svg width="326" height="327" viewBox="0 0 326 327" fill="none" xmlns="http://www.w3.org/2000/svg">
<circle cx="159.5" cy="159.5" r="159.5" fill="#D9D9D9"/>
<path d="M312.002 262.896C306.409 257.311 281.36 241.756 256.907 228.227C270.872 208.28 278.354 184.516 278.333 160.167C278.333 94.3549 224.978 41 159.167 41C93.3469 41 40 94.3549 40 160.167C40 225.978 93.3469 279.333 159.167 279.333C184.263 279.333 207.516 271.54 226.726 258.288C240.271 282.765 255.85 307.862 261.443 313.455C272.677 324.688 286.278 327.016 294.222 327C303.573 326.984 326.437 304.112 326 295.222C325.611 287.286 323.235 274.13 312.002 262.896Z" fill="#292F33"/>
<path d="M159.165 255.499C211.816 255.499 254.499 212.816 254.499 160.165C254.499 107.514 211.816 64.832 159.165 64.832C106.514 64.832 63.832 107.514 63.832 160.165C63.832 212.816 106.514 255.499 159.165 255.499Z" fill="#66757F"/>
<path d="M167.111 239.613C205.745 227.434 198.889 199.891 198.889 168.113C198.889 136.335 230.675 114.822 201.542 90.655C184.247 76.3073 147.917 71.4532 131.035 77.7452C115.52 83.5208 95.6111 95.2866 95.6111 119.12C95.6111 142.953 95.1503 142.373 82.042 163.807C61.1878 197.905 112.493 256.829 167.111 239.613Z" fill="#F5F8FA"/>
<path d="M143.278 215.774C160.828 215.774 175.056 201.547 175.056 183.997C175.056 166.446 160.828 152.219 143.278 152.219C125.727 152.219 111.5 166.446 111.5 183.997C111.5 201.547 125.727 215.774 143.278 215.774Z" fill="#FFAC33"/>
</svg>
