<svg width="19" height="19" viewBox="0 0 19 19" fill="none" xmlns="http://www.w3.org/2000/svg">
<path d="M2.86318 1.83594V1.78594H2.81318H2.20898H2.15898V1.83594V17.43V17.48H2.20898H13.4H13.45V17.43V16.8954V16.8454H13.4H2.86318V1.83594Z" fill="#333333" stroke="black" stroke-width="0.1"/>
<path d="M1 0.45H0.95V0.5V18.5V18.55H1H15.2203H15.8245H18H18.05V18.5V0.5V0.45H18H15.8244H15.2203H13.7015H10.4868H1ZM12.0625 3.03742L11.141 3.7924V1.08466H13.0473V3.79239L12.1259 3.03742L12.0942 3.01146L12.0625 3.03742ZM10.5185 5.16035L12.0942 3.86941L13.6698 5.16035L13.7515 5.22728V5.12168V1.08466H15.1703V17.9154H1.65419V1.08466H9.22841V3.43393V3.48393H9.27841H9.8826H9.9326V3.43393V1.08466H10.4368V5.12168V5.22728L10.5185 5.16035ZM16.9622 10.795V1.08466H17.3458V17.9154H16.9622V13.9555V13.9055H16.9122H16.308H16.258V13.9555V17.9153H15.8744V1.08466H16.258V10.795V10.845H16.308H16.9122H16.9622V10.795Z" fill="#333333" stroke="black" stroke-width="0.1"/>
<path d="M16.9628 11.5078V11.4578H16.9128H16.3086H16.2586V11.5078V13.2425V13.2925H16.3086H16.9128H16.9628V13.2425V11.5078Z" fill="#333333" stroke="black" stroke-width="0.1"/>
<path d="M6.7154 15.0262L8.57914 12.1697L10.4429 15.0262L10.4675 15.0639L10.5075 15.0434L11.0307 14.7761L11.0802 14.7508L11.0499 14.7043L8.98767 11.5435L9.9828 10.0182C10.1304 10.0585 10.2842 10.0794 10.4392 10.0794C10.9935 10.0794 11.5125 9.81586 11.792 9.38736L12.4535 8.37369L12.4535 8.37368C12.8883 7.70689 12.6262 6.85455 11.8807 6.47362C11.6436 6.35248 11.3746 6.28861 11.1027 6.28861C10.5485 6.28861 10.0296 6.55212 9.74998 6.98069L9.08862 7.99433L9.1305 8.02165L9.08862 7.99433C8.71645 8.56481 8.85456 9.27284 9.37115 9.70352L8.57918 10.9174L7.59272 9.4054C7.79391 9.24468 7.93422 9.04844 8.00167 8.8257L8.00167 8.8257C8.09839 8.50622 8.03532 8.16686 7.82622 7.8464C7.82622 7.8464 7.82622 7.8464 7.82622 7.8464L6.69296 6.1094L6.66838 6.07173L6.62833 6.09219L6.1051 6.35951L6.0556 6.3848L6.08598 6.43135L7.21924 8.16835C7.33444 8.34492 7.3662 8.51352 7.32235 8.65831L7.32234 8.65832C7.30356 8.72038 7.26976 8.78013 7.22159 8.83653L5.75503 6.58865L5.73045 6.55099L5.69041 6.57145L5.16717 6.83876L5.11767 6.86405L5.14805 6.91061L6.60662 9.1462C6.52955 9.15371 6.45552 9.14941 6.38585 9.13291C6.2163 9.09269 6.06526 8.98094 5.95032 8.80474L5.95032 8.80473L4.81706 7.0678L4.79248 7.03014L4.75244 7.0506L4.22921 7.31791L4.1797 7.3432L4.21008 7.38976L5.34333 9.12668C5.34334 9.12668 5.34334 9.12669 5.34334 9.12669C5.55241 9.44727 5.85094 9.66236 6.20637 9.74666C6.31529 9.77249 6.42646 9.78531 6.53882 9.78531C6.6855 9.78531 6.83381 9.76341 6.98107 9.7203L8.17061 11.5435L6.10842 14.7043L6.07805 14.7508L6.12755 14.7761L6.65078 15.0434L6.69083 15.0639L6.7154 15.0262ZM11.1027 6.9232C11.2532 6.9232 11.4021 6.95873 11.5331 7.02561C11.9434 7.23523 12.0787 7.69553 11.8465 8.0517C11.8465 8.0517 11.8465 8.0517 11.8465 8.05171L11.1851 9.06533C11.0335 9.29765 10.7484 9.44468 10.4393 9.44468C10.2887 9.44468 10.1399 9.40918 10.009 9.34233C9.59865 9.13266 9.46326 8.67232 9.6956 8.31621L10.357 7.30258L10.3151 7.27526L10.357 7.30258C10.5085 7.07023 10.7937 6.9232 11.1027 6.9232Z" fill="#333333" stroke="black" stroke-width="0.1"/>
</svg>
