<svg width="17" height="17" viewBox="0 0 17 17" fill="none" xmlns="http://www.w3.org/2000/svg">
<path d="M4.25 10.625C4.13837 10.625 4.02783 10.6469 3.92469 10.6896C3.82155 10.7324 3.72783 10.795 3.6489 10.8739C3.56996 10.9528 3.50735 11.0465 3.46465 11.1497C3.42194 11.2528 3.39997 11.3634 3.4 11.475V12.9899C2.30439 11.7509 1.69975 10.154 1.7 8.5C1.69985 8.25003 1.71481 8.00027 1.74482 7.75211C1.75859 7.64113 1.75031 7.52853 1.72048 7.42076C1.69064 7.31299 1.63983 7.21216 1.57096 7.12406C1.50209 7.03596 1.41651 6.96231 1.31913 6.90735C1.22174 6.85238 1.11447 6.81717 1.00345 6.80374C0.892435 6.79031 0.779859 6.79891 0.672175 6.82907C0.564491 6.85922 0.463816 6.91033 0.375919 6.97946C0.288022 7.04859 0.214631 7.13439 0.159953 7.23193C0.105274 7.32948 0.0703826 7.43686 0.0572777 7.54791C0.0187755 7.86381 -0.000351106 8.18177 4.87847e-06 8.5C0.00115979 10.5282 0.730117 12.4887 2.05434 14.025H0.850004C0.62457 14.025 0.40837 14.1146 0.248964 14.274C0.089558 14.4334 4.87847e-06 14.6496 4.87847e-06 14.875C4.87847e-06 15.1004 0.089558 15.3166 0.248964 15.476C0.40837 15.6354 0.62457 15.725 0.850004 15.725H4.25C4.38294 15.7233 4.51356 15.6899 4.63097 15.6276C4.74838 15.5652 4.8492 15.4757 4.92501 15.3665C4.93492 15.3534 4.94758 15.3437 4.95681 15.3299C4.96247 15.3215 4.96262 15.3114 4.96791 15.3028C5.00842 15.2344 5.03877 15.1604 5.05801 15.0833C5.0706 15.0399 5.07953 14.9956 5.08473 14.9508C5.08717 14.9245 5.10003 14.9019 5.10003 14.875V11.475C5.10006 11.3634 5.07809 11.2528 5.03539 11.1497C4.99268 11.0466 4.93007 10.9528 4.85113 10.8739C4.77219 10.795 4.67848 10.7323 4.57533 10.6896C4.47219 10.6469 4.36164 10.625 4.25 10.625ZM5.525 3.40001H4.0099C5.24903 2.30445 6.84601 1.69982 8.5 1.70001C8.74985 1.69941 8.99949 1.71438 9.24748 1.74484C9.35834 1.7583 9.47077 1.7498 9.57834 1.71981C9.68591 1.68982 9.78653 1.63894 9.87444 1.57007C9.96235 1.5012 10.0358 1.41569 10.0907 1.31842C10.1456 1.22115 10.1807 1.11402 10.1942 1.00316C10.2076 0.892303 10.1991 0.779876 10.1692 0.672302C10.1392 0.564729 10.0883 0.464115 10.0194 0.376205C9.95054 0.288296 9.86503 0.214812 9.76776 0.15995C9.67049 0.105088 9.56337 0.0699216 9.45251 0.0564593C9.13645 0.0183292 8.81835 -0.000521722 8.5 1.09801e-05C6.47178 0.00111353 4.5113 0.730017 2.975 2.0542V0.85001C2.975 0.624577 2.88545 0.408376 2.72604 0.24897C2.56664 0.0895642 2.35044 1.09801e-05 2.125 1.09801e-05C1.89957 1.09801e-05 1.68337 0.0895642 1.52396 0.24897C1.36456 0.408376 1.275 0.624577 1.275 0.85001V4.25001C1.28035 4.30619 1.29155 4.36166 1.30842 4.41551L1.30862 4.41655C1.32926 4.52114 1.37001 4.62074 1.42862 4.7098L1.43832 4.72416C1.49449 4.80585 1.56488 4.87678 1.64615 4.93355C1.65544 4.94035 1.66005 4.95077 1.6697 4.95726C1.68185 4.9653 1.69559 4.96785 1.70799 4.97521C1.7562 5.00421 1.80728 5.02814 1.86042 5.04661C1.93223 5.07159 2.0071 5.0867 2.08298 5.09153C2.09771 5.09232 2.11011 5.10003 2.125 5.10003H5.525C5.75044 5.10003 5.96664 5.01048 6.12604 4.85107C6.28545 4.69167 6.375 4.47547 6.375 4.25003C6.375 4.0246 6.28545 3.8084 6.12604 3.64899C5.96664 3.48959 5.75044 3.40001 5.525 3.40001ZM15.6914 12.5835C15.6708 12.4788 15.63 12.3792 15.5713 12.2902L15.5617 12.2759C15.5055 12.1941 15.4351 12.1232 15.3537 12.0664C15.3445 12.0596 15.3399 12.0492 15.3303 12.0427C15.3211 12.0367 15.3102 12.0365 15.3009 12.0308C15.1931 11.9708 15.0749 11.9318 14.9526 11.9156C14.9257 11.9131 14.9025 11.9 14.875 11.9H11.475C11.2496 11.9 11.0334 11.9895 10.874 12.1489C10.7146 12.3083 10.625 12.5245 10.625 12.75C10.625 12.9754 10.7146 13.1916 10.874 13.351C11.0334 13.5104 11.2496 13.6 11.475 13.6H12.99C11.7509 14.6955 10.154 15.3002 8.5 15.3C8.25013 15.3003 8.00048 15.285 7.75251 15.2543C7.52862 15.2271 7.30309 15.29 7.12555 15.4291C6.94801 15.5682 6.83299 15.7721 6.80581 15.996C6.77862 16.2199 6.84148 16.4454 6.98058 16.6229C7.11967 16.8005 7.32359 16.9155 7.54748 16.9427C7.86356 16.9808 8.18163 16.9999 8.5 17C10.5282 16.9989 12.4887 16.27 14.025 14.9458V16.15C14.025 16.3754 14.1146 16.5916 14.274 16.751C14.4334 16.9104 14.6496 17 14.875 17C15.1004 17 15.3166 16.9104 15.476 16.751C15.6354 16.5916 15.725 16.3754 15.725 16.15V12.75C15.7196 12.6938 15.7085 12.6384 15.6916 12.5845L15.6914 12.5835ZM16.15 2.97501C16.3754 2.97501 16.5916 2.88546 16.751 2.72605C16.9104 2.56664 17 2.35044 17 2.12501C17 1.89958 16.9104 1.68337 16.751 1.52397C16.5916 1.36456 16.3754 1.27501 16.15 1.27501H12.75C12.6947 1.28034 12.64 1.29137 12.5869 1.3079L12.5813 1.30904C12.4781 1.32969 12.3797 1.36996 12.2917 1.42764L12.275 1.4389C12.1937 1.49498 12.1231 1.56516 12.0665 1.64611C12.0598 1.65529 12.0495 1.6598 12.0432 1.6693C12.0371 1.67843 12.0369 1.68922 12.0312 1.69851C11.9705 1.80696 11.9312 1.92602 11.9153 2.04927C11.9129 2.07552 11.9 2.09814 11.9 2.12501V5.52501C11.9 5.75044 11.9896 5.96664 12.149 6.12605C12.3084 6.28545 12.5246 6.37501 12.75 6.37501C12.9754 6.37501 13.1916 6.28545 13.351 6.12605C13.5104 5.96664 13.6 5.75044 13.6 5.52501V4.00956C14.6955 5.24883 15.3001 6.84589 15.3 8.49996C15.3002 8.74994 15.2852 8.9997 15.2552 9.24787C15.2282 9.47161 15.2912 9.69689 15.4301 9.8743C15.5691 10.0517 15.7728 10.1667 15.9964 10.1942C16.0309 10.1981 16.0655 10.2001 16.1002 10.2C16.3077 10.1997 16.508 10.1235 16.6632 9.9857C16.8184 9.84793 16.9178 9.65811 16.9427 9.45206C16.9812 9.13618 17.0003 8.81823 17 8.5C16.9988 6.47175 16.2698 4.51127 14.9455 2.97501H16.15Z" fill="black"/>
</svg>
