<svg width="24" height="25" viewBox="0 0 24 25" fill="none" xmlns="http://www.w3.org/2000/svg">
<path d="M9.81004 18.5859C5.24673 18.5859 1.53418 14.8734 1.53418 10.31C1.53418 5.74673 5.24673 2.03418 9.81004 2.03418C14.3734 2.03418 18.0859 5.74673 18.0859 10.31C18.0859 14.8734 14.3734 18.5859 9.81004 18.5859ZM9.81004 3.68935C6.15956 3.68935 3.18935 6.65956 3.18935 10.31C3.18935 13.9605 6.15956 16.9307 9.81004 16.9307C13.4605 16.9307 16.4307 13.9605 16.4307 10.31C16.4307 6.65956 13.4614 3.68935 9.81004 3.68935Z" fill="#9A9A9A"/>
<path d="M21.6383 22.9659C21.5296 22.966 21.4219 22.9446 21.3215 22.903C21.2211 22.8614 21.1299 22.8003 21.0532 22.7234L14.6857 16.3559C14.6089 16.2791 14.5479 16.1879 14.5063 16.0875C14.4648 15.9871 14.4434 15.8795 14.4434 15.7708C14.4434 15.6622 14.4648 15.5546 14.5063 15.4542C14.5479 15.3538 14.6089 15.2626 14.6857 15.1857C14.7626 15.1089 14.8538 15.0479 14.9542 15.0063C15.0546 14.9648 15.1622 14.9434 15.2708 14.9434C15.3795 14.9434 15.4871 14.9648 15.5875 15.0063C15.6879 15.0479 15.7791 15.1089 15.8559 15.1857L22.2234 21.5532C22.3395 21.6688 22.4186 21.8162 22.4508 21.9769C22.4829 22.1375 22.4666 22.3041 22.4039 22.4555C22.3412 22.6068 22.235 22.7362 22.0987 22.827C21.9623 22.9179 21.8021 22.9662 21.6383 22.9659Z" fill="#9A9A9A"/>
</svg>
