<svg width="13" height="13" viewBox="0 0 13 13" fill="none" xmlns="http://www.w3.org/2000/svg">
<path d="M8.66765 5.53028C9.83127 4.42908 8.68329 3.38043 7.53945 4.4626C7.19008 4.79323 7.02545 5.20508 7.09947 5.51941L3.91971 8.52889C3.85749 8.58777 3.85749 8.68349 3.91971 8.74237L4.14529 8.95584C4.2075 9.01472 4.30864 9.01472 4.37086 8.95584L7.56466 5.93337C7.88883 5.9847 8.32849 5.85094 8.66765 5.53028Z" fill="white"/>
<path d="M8.2362 8.52818C8.29842 8.58706 8.29842 8.68277 8.2362 8.74165L8.01062 8.95513C7.94841 9.01401 7.84727 9.01401 7.78505 8.95513L6.30301 7.55259L6.75416 7.12564L8.2362 8.52818ZM4.92818 6.25181L5.40039 6.69869L5.85154 6.27174L5.37359 5.81943C5.5044 5.52081 5.35604 5.20527 5.0775 4.8985L4.17519 4.0446C4.0297 3.90661 3.80381 4.12039 3.94962 4.25807L4.85192 5.11197L4.62635 5.32545L3.72404 4.47155C3.57823 4.33386 3.35266 4.54734 3.49847 4.68502L4.40077 5.53892L4.17519 5.7524L3.27257 4.8985C3.12708 4.76081 2.9015 4.97429 3.04699 5.11197L3.9493 5.96587C4.26996 6.24698 4.582 6.41486 4.92818 6.25181Z" fill="white"/>
<circle cx="6.5" cy="6.5" r="6" stroke="white"/>
</svg>
