<svg width="12" height="10" viewBox="0 0 12 10" fill="none" xmlns="http://www.w3.org/2000/svg">
<path d="M10.7265 3.06099C12.9292 0.858288 10.7561 -1.23932 8.59083 0.925329C7.92948 1.58668 7.61782 2.41051 7.75795 3.03925L1.73872 9.05907C1.62095 9.17685 1.62095 9.36831 1.73872 9.48608L2.16573 9.9131C2.28351 10.0309 2.47497 10.0309 2.59274 9.9131L8.63854 3.8673C9.25218 3.96997 10.0845 3.70241 10.7265 3.06099Z" fill="white"/>
<path d="M9.91203 9.05765C10.0298 9.17542 10.0298 9.36688 9.91203 9.48466L9.48502 9.91167C9.36724 10.0294 9.17578 10.0294 9.05801 9.91167L6.25254 7.1062L7.10656 6.25218L9.91203 9.05765ZM3.65 4.50427L4.54389 5.39816L5.39791 4.54413L4.49315 3.63938C4.74078 3.04205 4.45994 2.41089 3.93266 1.79725L2.22462 0.0892067C1.94921 -0.18681 1.52159 0.240805 1.79761 0.516218L3.50565 2.22426L3.07864 2.65127L1.3706 0.943229C1.09458 0.667816 0.66757 1.09483 0.943587 1.37024L2.65163 3.07828L2.22462 3.5053L0.515972 1.79725C0.240559 1.52184 -0.186452 1.94885 0.0889606 2.22426L1.79701 3.93231C2.404 4.49461 2.99469 4.83042 3.65 4.50427Z" fill="white"/>
</svg>
