<svg width="27" height="27" viewBox="0 0 27 27" fill="none" xmlns="http://www.w3.org/2000/svg">
<path fill-rule="evenodd" clip-rule="evenodd" d="M13.4633 2.1954C9.49553 2.17946 5.80885 4.23814 3.74573 7.62188C1.68261 11.0056 1.54411 15.2207 3.38067 18.7321L3.60713 19.1735C3.79274 19.5209 3.83157 19.9279 3.71496 20.304C3.39181 21.1623 3.12171 22.0395 2.9062 22.9309C2.9062 23.383 3.0356 23.6414 3.52086 23.6307C4.38035 23.4409 5.22679 23.1963 6.055 22.8986C6.4117 22.8003 6.79097 22.8231 7.13335 22.9632C7.44608 23.1139 8.08231 23.5015 8.10387 23.5015C12.2591 25.6863 17.3339 25.0836 20.8597 21.9864C24.3854 18.8892 25.6302 13.9406 23.9885 9.54779C22.3468 5.15498 18.1594 2.22992 13.4633 2.1954Z" stroke="#9A9A9A" stroke-width="1.5" stroke-linecap="round" stroke-linejoin="round"/>
<path d="M8.07086 14.63C8.69519 14.63 9.2013 14.1239 9.2013 13.4996C9.2013 12.8753 8.69519 12.3691 8.07086 12.3691C7.44654 12.3691 6.94043 12.8753 6.94043 13.4996C6.94043 14.1239 7.44654 14.63 8.07086 14.63Z" fill="#9A9A9A" stroke="#9A9A9A" stroke-width="1.5" stroke-linecap="round" stroke-linejoin="round"/>
<path d="M13.4634 14.63C14.0878 14.63 14.5939 14.1239 14.5939 13.4996C14.5939 12.8753 14.0878 12.3691 13.4634 12.3691C12.8391 12.3691 12.333 12.8753 12.333 13.4996C12.333 14.1239 12.8391 14.63 13.4634 14.63Z" fill="#9A9A9A" stroke="#9A9A9A" stroke-width="1.5" stroke-linecap="round" stroke-linejoin="round"/>
<path d="M18.8541 14.63C19.4784 14.63 19.9845 14.1239 19.9845 13.4996C19.9845 12.8753 19.4784 12.3691 18.8541 12.3691C18.2297 12.3691 17.7236 12.8753 17.7236 13.4996C17.7236 14.1239 18.2297 14.63 18.8541 14.63Z" fill="#9A9A9A" stroke="#9A9A9A" stroke-width="1.5" stroke-linecap="round" stroke-linejoin="round"/>
</svg>
