<svg width="14" height="14" viewBox="0 0 14 14" fill="none" xmlns="http://www.w3.org/2000/svg">
<path d="M8.31816 14C4.34739 14 4.31681 13.835 3.82483 13.4642C3.56399 13.2677 3.07201 13.1316 1.27407 13.0143C1.14387 13.0055 1.01934 12.9556 0.936328 12.8545C0.898316 12.8077 0 11.4954 0 9.39345C0 7.32216 0.643152 6.37756 0.670242 6.33379C0.749762 6.20554 0.890014 6.12806 1.04032 6.12806C2.51625 6.12806 4.5628 4.24018 5.93824 0.945035C6.17592 0.375125 6.22529 0 7.09914 0C7.59593 0 8.15344 0.356741 8.42827 0.814157C8.99233 1.74869 8.70615 3.75606 8.44094 4.82848C9.34231 4.82103 10.9733 4.80878 11.7493 4.80878C12.829 4.80878 13.5438 5.45354 13.5652 6.39639C13.5726 6.7076 13.5315 7.10505 13.442 7.31078C13.6797 7.54846 13.9859 7.90608 13.9995 8.36743C14.0161 8.96273 13.6272 9.41577 13.3786 9.67578C13.4359 9.84867 13.5495 10.0785 13.5385 10.3529C13.511 11.0279 12.9911 11.4625 12.6673 11.6897C12.694 11.8744 12.7154 12.2229 12.6559 12.4925C12.4222 13.568 10.8484 13.9996 8.31816 13.9996V14ZM1.50608 12.1266C3.07201 12.2566 3.90916 12.4321 4.35045 12.7652C4.69213 13.023 4.6397 13.125 8.31816 13.125C9.44018 13.125 11.6344 13.0782 11.8031 12.3065C11.8699 11.9979 11.5453 11.6945 11.544 11.6923C11.4553 11.473 11.554 11.2157 11.7703 11.1211C11.7738 11.1194 12.6463 10.8064 12.666 10.3179C12.6791 10.0058 12.465 9.81803 12.4602 9.81015C12.3331 9.61231 12.3794 9.34092 12.5725 9.2061C12.5747 9.20435 13.1401 8.86118 13.1261 8.39326C13.1156 8.02164 12.6267 7.75988 12.6118 7.75156C12.5026 7.68897 12.4231 7.58085 12.3982 7.45654C12.3737 7.3331 12.4012 7.2031 12.4781 7.10286C12.4781 7.10286 12.7005 6.74919 12.6922 6.4174C12.676 5.70698 11.9136 5.68465 11.7502 5.68465C10.6478 5.68465 7.81745 5.6956 7.81745 5.6956C7.66496 5.69647 7.53257 5.62381 7.45043 5.50169C7.36829 5.37956 7.36261 5.22724 7.41023 5.08848C7.83711 3.85718 8.07567 1.92465 7.67938 1.26457C7.56272 1.06978 7.53607 0.875438 7.09914 0.875438C7.03841 0.875438 6.89466 0.923587 6.74436 1.28208C5.2846 4.78164 3.10391 6.80609 1.31733 6.98862C1.16309 7.34054 0.873411 8.06978 0.873411 9.39301C0.873411 10.7434 1.30029 11.7886 1.50564 12.1266H1.50608Z" fill="#C1C0C0"/>
</svg>
