<svg width="18" height="15" viewBox="0 0 18 15" fill="none" xmlns="http://www.w3.org/2000/svg">
<path d="M13.2 15C11.85 15 10.8 13.9737 10.575 12.6316H6.75C6.6 13.9737 5.475 15 4.125 15C2.775 15 1.725 13.9737 1.5 12.6316H0V0H12V3.15789H14.55L18 6.78947V12.6316H15.75C15.6 13.9737 14.475 15 13.2 15ZM12.075 12.2368C12.075 12.8684 12.6 13.4211 13.2 13.4211C13.8 13.4211 14.325 12.8684 14.325 12.2368C14.325 11.6053 13.8 11.0526 13.2 11.0526C12.6 11.0526 12.075 11.6053 12.075 12.2368ZM4.2 11.0526C3.6 11.0526 3.075 11.6053 3.075 12.2368C3.075 12.8684 3.6 13.4211 4.2 13.4211C4.8 13.4211 5.325 12.8684 5.325 12.2368C5.325 11.6053 4.8 11.0526 4.2 11.0526ZM15.525 11.0526H16.5V7.42105L14.025 4.73684H12.075V9.71053C12.45 9.55263 12.825 9.47368 13.2 9.47368C14.25 9.47368 15.15 10.1053 15.525 11.0526ZM6.525 11.0526H10.5V1.57895H1.5V11.0526H1.725C2.175 10.1053 3.075 9.47368 4.125 9.47368C5.175 9.47368 6.15 10.1053 6.525 11.0526Z" fill="black"/>
</svg>
