<svg width="16" height="16" viewBox="0 0 16 16" fill="none" xmlns="http://www.w3.org/2000/svg">
<g clip-path="url(#clip0_227_886)">
<path d="M11.25 10.7266C11.0469 10.7266 10.8828 10.8906 10.8828 11.0933C10.8828 11.2959 11.0469 11.4604 11.25 11.4604C11.4522 11.4604 11.6167 11.2959 11.6167 11.0933C11.6167 10.8906 11.4522 10.7266 11.25 10.7266Z" fill="black"/>
<path d="M14.8603 9.56738H14.7422V7.83934C14.7422 7.39988 14.5938 6.99559 14.3462 6.67138L16 5.60597L15.8696 5.39306L12.583 0.0351562L5.65431 4.28419H2.9375C1.35841 4.28419 0.0751875 5.53028 0.00634375 7.09131L0.00584375 7.09472L0 7.60841V8.72463V13.0244C0 14.647 1.31494 15.9614 2.9375 15.9619H12.8828C13.9487 15.9614 14.8125 15.0977 14.8125 14.0318V12.6172H14.8603C15.1626 12.6167 15.4072 12.3726 15.4077 12.0703V10.1143C15.4072 9.812 15.1631 9.56738 14.8603 9.56738ZM12.417 0.722156L15.3135 5.44091L13.9453 6.27928C13.8047 6.17675 13.649 6.09325 13.4829 6.03122L13.8741 5.79147C13.7286 5.33541 13.8589 4.82906 14.2149 4.50534L12.7559 2.12594C12.3047 2.29391 11.7959 2.18159 11.4546 1.84519L4.82716 5.90919H3.96191L12.417 0.722156ZM12.2969 4.58056C12.0811 4.71144 11.8008 4.64356 11.668 4.42772C11.5371 4.21481 11.605 3.93163 11.8184 3.80125C12.0337 3.66794 12.3174 3.73581 12.4473 3.95166C12.5801 4.167 12.5127 4.44825 12.2969 4.58056ZM9.42384 4.80909L9.37356 4.78906C9.37356 4.78906 9.20072 4.76856 9.07278 4.80666C8.99516 4.82913 8.91703 4.85891 8.83988 4.8965L8.70169 4.67334L8.38578 4.86672L8.52641 5.09719C8.49369 5.12453 8.46097 5.15238 8.43363 5.18263C8.36819 5.25538 8.31837 5.33303 8.28569 5.41797C8.25297 5.50341 8.24075 5.58888 8.24809 5.67872C8.25444 5.75588 8.28178 5.83253 8.32281 5.90919H7.32331C7.32528 5.26416 7.64703 4.63478 8.23787 4.27247C9.14559 3.71581 10.3341 3.99903 10.8878 4.90675C11.0807 5.22022 11.1705 5.56691 11.1715 5.90919H10.2281C10.213 5.87159 10.1968 5.83447 10.1739 5.79688C10.0782 5.63866 9.95809 5.54834 9.81256 5.52588C9.66706 5.50097 9.49909 5.53856 9.30328 5.63378L9.04009 5.76659C8.94487 5.81153 8.86969 5.82959 8.81206 5.81934C8.75444 5.80909 8.70709 5.77394 8.67194 5.71388C8.62897 5.6465 8.62166 5.57375 8.64947 5.50097C8.67437 5.42578 8.74419 5.35547 8.85209 5.28759C8.93753 5.23534 9.0225 5.19725 9.11284 5.16991C9.20075 5.14256 9.32622 5.15231 9.32622 5.15231C9.35356 5.14988 9.37603 5.12984 9.38141 5.10447L9.43903 4.86375L9.42384 4.80909ZM14.3115 14.0318C14.311 14.4268 14.1519 14.7827 13.8931 15.042C13.6338 15.3008 13.2783 15.46 12.8828 15.4605H2.9375C2.26416 15.46 1.65675 15.188 1.21484 14.7471C0.773438 14.3052 0.501938 13.6978 0.501469 13.0244V8.7246V7.61325L0.507812 7.11178C0.564937 5.81784 1.62987 4.78513 2.9375 4.78559H4.83691L3.00681 5.90913L2.27487 5.90963V6.41109L12.8173 6.41059C13.2104 6.41256 13.5639 6.57125 13.8222 6.82906C14.081 7.08834 14.2407 7.44431 14.2407 7.83931V9.56734H11.0737C10.6523 9.56684 10.2705 9.73825 9.99509 10.0141L9.99459 10.0146C9.71919 10.29 9.54831 10.6714 9.54831 11.0923C9.54831 11.5131 9.71922 11.8945 9.99413 12.1704L9.99609 12.1713L9.99512 12.1708C10.2705 12.4463 10.6523 12.6176 11.0737 12.6171H14.3115V14.0318ZM14.9062 12.0703C14.9062 12.0947 14.8857 12.1157 14.8603 12.1157H11.0737C10.7881 12.1152 10.5386 12.0029 10.3501 11.8164H10.3496C10.1631 11.6279 10.0503 11.3774 10.0498 11.0923C10.0503 10.8076 10.1631 10.5566 10.3496 10.3687C10.5381 10.1821 10.7881 10.0693 11.0737 10.0688H14.8603C14.8857 10.0688 14.9062 10.0898 14.9062 10.1143V12.0703Z" fill="black"/>
</g>
<defs>
<clipPath id="clip0_227_886">
<rect width="16" height="16" fill="white"/>
</clipPath>
</defs>
</svg>
